<svg width="56" height="57" viewBox="0 0 56 57" fill="none" xmlns="http://www.w3.org/2000/svg">
<circle cx="28" cy="28.1387" r="28" fill="#1B1725"/>
<g clip-path="url(#clip0_170_2731)">
<g clip-path="url(#clip1_170_2731)">
<path d="M37.7977 18.4927C38.4402 18.8526 38.9135 19.4529 39.1135 20.1616C39.3135 20.8704 39.2238 21.6295 38.8641 22.2722L29.731 38.5817C29.4996 38.9949 29.1788 39.3511 28.792 39.6242C28.4052 39.8973 27.9621 40.0804 27.4954 40.1601C27.0286 40.2397 26.5499 40.2139 26.0944 40.0846C25.6389 39.9552 25.2181 39.7256 24.8628 39.4125L17.9411 33.3153C17.3885 32.8283 17.052 32.1417 17.0055 31.4066C16.9591 30.6715 17.2066 29.948 17.6936 29.3954C18.1806 28.8428 18.8671 28.5062 19.6022 28.4598C20.3374 28.4134 21.0608 28.6609 21.6135 29.1478L26.3237 33.2978L34.0174 19.5592C34.1956 19.2409 34.4347 18.9609 34.7211 18.7351C35.0075 18.5092 35.3356 18.342 35.6867 18.243C36.0377 18.144 36.4048 18.1151 36.767 18.1579C37.1292 18.2008 37.4794 18.3145 37.7977 18.4927Z" fill="#FFCE53"/>
</g>
</g>
<defs>
<clipPath id="clip0_170_2731">
<rect width="24" height="24" fill="white" transform="translate(16 16.1387)"/>
</clipPath>
<clipPath id="clip1_170_2731">
<rect width="27" height="27" fill="white" transform="translate(15 15.1387)"/>
</clipPath>
</defs>
</svg>
