<svg xmlns="http://www.w3.org/2000/svg" width="48" height="48" viewBox="0 0 48 48" fill="none">
<g clip-path="url(#clip0_311_503)">
<path d="M23.991 11.334L24.8445 9.8625C24.9701 9.64454 25.1374 9.45345 25.3368 9.30013C25.5362 9.14682 25.7639 9.03428 26.0068 8.96896C26.2497 8.90363 26.5031 8.88679 26.7526 8.9194C27.002 8.95201 27.2425 9.03342 27.4605 9.159C27.6785 9.28458 27.8696 9.45185 28.0229 9.65128C28.1762 9.85071 28.2887 10.0784 28.354 10.3213C28.4194 10.5642 28.4362 10.8176 28.4036 11.0671C28.371 11.3165 28.2896 11.557 28.164 11.775L19.9605 25.9785H25.8945C27.816 25.9785 28.8945 28.2375 28.0605 29.8035H10.6695C9.6105 29.8035 8.757 28.95 8.757 27.891C8.757 26.832 9.6105 25.9785 10.6695 25.9785H15.5445L21.7875 15.159L19.8375 11.775C19.6073 11.3364 19.5559 10.8257 19.6939 10.35C19.8319 9.87426 20.1488 9.47044 20.578 9.22316C21.0072 8.97587 21.5154 8.90433 21.9962 9.02352C22.477 9.1427 22.893 9.44337 23.157 9.8625L23.991 11.334ZM16.6125 31.7715L14.775 34.959C14.6494 35.177 14.4821 35.3681 14.2827 35.5214C14.0833 35.6747 13.8556 35.7872 13.6127 35.8525C13.3698 35.9179 13.1164 35.9347 12.8669 35.9021C12.6175 35.8695 12.377 35.7881 12.159 35.6625C11.941 35.5369 11.7499 35.3696 11.5966 35.1702C11.4433 34.9708 11.3308 34.7431 11.2655 34.5002C11.2001 34.2573 11.1833 34.0039 11.2159 33.7544C11.2485 33.505 11.3299 33.2645 11.4555 33.0465L12.825 30.684C14.3625 30.2055 15.6195 30.5715 16.6125 31.7715ZM32.4465 25.9875H37.425C38.484 25.9875 39.3375 26.841 39.3375 27.9C39.3375 28.959 38.484 29.8125 37.425 29.8125H34.659L36.525 33.0465C36.7552 33.4851 36.8066 33.9958 36.6686 34.4715C36.5306 34.9472 36.2137 35.3511 35.7845 35.5983C35.3553 35.8456 34.8471 35.9172 34.3663 35.798C33.8855 35.6788 33.4695 35.3781 33.2055 34.959C30.0645 29.5125 27.702 25.434 26.1375 22.716C24.534 19.95 25.6785 17.175 26.8125 16.2375C28.068 18.3945 29.943 21.6465 32.4465 25.9875ZM24 0.75C11.1555 0.75 0.75 11.157 0.75 24C0.75 36.843 11.157 47.25 24 47.25C36.8445 47.25 47.25 36.843 47.25 24C47.25 11.157 36.843 0.75 24 0.75ZM44.25 24C44.25 35.1285 35.241 44.25 24 44.25C12.8715 44.25 3.75 35.241 3.75 24C3.75 12.8715 12.759 3.75 24 3.75C35.1285 3.75 44.25 12.759 44.25 24Z" fill="#800216"/>
</g>
<defs>
<clipPath id="clip0_311_503">
<rect width="48" height="48" fill="white"/>
</clipPath>
</defs>
</svg>