<svg width="40" height="40" viewBox="0 0 40 40" fill="none" xmlns="http://www.w3.org/2000/svg">
<circle cx="20" cy="20" r="20" transform="matrix(-1 0 0 1 40 0)" fill="#FFA800"/>
<path d="M24.0382 10.9802C24.1899 11.1316 24.3102 11.3114 24.3924 11.5094C24.4745 11.7073 24.5167 11.9195 24.5167 12.1338C24.5167 12.3482 24.4745 12.5604 24.3924 12.7583C24.3102 12.9563 24.1899 13.1361 24.0382 13.2875L17.6891 19.6366L24.0382 25.9857C24.3442 26.2916 24.516 26.7066 24.516 27.1393C24.516 27.572 24.3442 27.987 24.0382 28.2929C23.7322 28.5989 23.3173 28.7708 22.8846 28.7708C22.4519 28.7708 22.0369 28.5989 21.7309 28.2929L14.22 20.782C14.0683 20.6306 13.948 20.4508 13.8658 20.2529C13.7837 20.0549 13.7415 19.8427 13.7415 19.6284C13.7415 19.4141 13.7837 19.2019 13.8658 19.0039C13.948 18.806 14.0683 18.6261 14.22 18.4748L21.7309 10.9638C22.3527 10.342 23.4 10.342 24.0382 10.9802Z" fill="white"/>
</svg>
