<svg xmlns="http://www.w3.org/2000/svg" width="24" height="24" viewBox="0 0 24 24" fill="none">
<g clip-path="url(#clip0_311_35)">
<path d="M1.63409 19.5687C1.85593 21.0744 3.14509 22.1635 4.66167 22.2915C7.02596 22.4912 9.48128 22.7124 12 22.7124C14.5551 22.7124 17.029 22.5718 19.4283 22.35C20.9037 22.2137 22.1156 21.1138 22.3358 19.6488C22.5682 18.1016 22.7143 16.5103 22.7143 14.8754C22.7143 13.2241 22.5802 11.6022 22.3442 10.0401C22.127 8.60368 20.9345 7.53489 19.488 7.39878C17.0645 7.17069 14.5793 7.03833 12 7.03833C9.41245 7.03833 6.88233 7.16318 4.46101 7.39475C3.03939 7.53069 1.86632 8.5762 1.65097 9.98798C1.41043 11.5648 1.28571 13.2072 1.28571 14.8754C1.28571 16.4828 1.4098 18.0463 1.63409 19.5687Z" fill="#FFF3F1"/>
<path d="M1.63409 19.5687C1.85593 21.0744 3.14509 22.1635 4.66167 22.2915C7.02596 22.4912 9.48128 22.7124 12 22.7124C14.5551 22.7124 17.029 22.5718 19.4283 22.35C20.9036 22.2137 22.1156 21.1138 22.3358 19.6488C22.5682 18.1016 22.7143 16.5103 22.7143 14.8754C22.7143 13.2241 22.5802 11.6022 22.3442 10.0401C22.127 8.60368 20.9345 7.53489 19.488 7.39878C17.0645 7.17069 14.5793 7.03833 12 7.03833C9.41245 7.03833 6.88233 7.16318 4.46101 7.39475C3.03939 7.53069 1.86632 8.5762 1.65097 9.98798C1.41043 11.5648 1.28571 13.2072 1.28571 14.8754C1.28571 16.4828 1.4098 18.0463 1.63409 19.5687Z" stroke="#ED0027" stroke-width="1.71429" stroke-linejoin="round"/>
<path d="M7.87918 22.5465V7.1803" stroke="#ED0027" stroke-width="1.71429" stroke-linecap="round" stroke-linejoin="round"/>
<path d="M16.1208 22.5866V7.1803" stroke="#ED0027" stroke-width="1.71429" stroke-linecap="round" stroke-linejoin="round"/>
<path d="M16.8937 7.15342V6.18089C16.8937 4.88306 16.3781 3.63836 15.4604 2.72064C14.5427 1.80291 13.298 1.28735 12.0001 1.28735C10.7023 1.28735 9.4576 1.80291 8.53988 2.72064C7.62217 3.63836 7.1066 4.88306 7.1066 6.18089V7.15342" stroke="#ED0027" stroke-width="1.71429" stroke-linecap="round" stroke-linejoin="round"/>
</g>
<defs>
<clipPath id="clip0_311_35">
<rect width="24" height="24" fill="white"/>
</clipPath>
</defs>
</svg>