<svg width="56" height="57" viewBox="0 0 56 57" fill="none" xmlns="http://www.w3.org/2000/svg">
<circle cx="28" cy="28.1387" r="28" fill="#1B1725"/>
<g clip-path="url(#clip0_170_2741)">
<path fill-rule="evenodd" clip-rule="evenodd" d="M27.4166 17.6387C28.5635 17.6388 29.6788 18.0142 30.5922 18.7077C31.5057 19.4012 32.167 20.3747 32.4753 21.4793L32.5359 21.7185L34.7176 21.1737C34.877 21.134 35.0431 21.1284 35.2049 21.1574C35.3666 21.1863 35.5204 21.2491 35.6562 21.3416C35.7921 21.4341 35.9068 21.5543 35.9929 21.6942C36.0791 21.8342 36.1347 21.9907 36.1561 22.1537L36.1666 22.3053V24.417C36.8243 25.0476 37.3633 25.7913 37.7579 26.6127L37.9189 26.972H38.4999C38.7857 26.972 39.0615 27.077 39.275 27.2668C39.4886 27.4567 39.625 27.7184 39.6584 28.0022L39.6666 28.1387V31.6387C39.6666 31.8307 39.6192 32.0198 39.5287 32.1891C39.4381 32.3584 39.3072 32.5028 39.1474 32.6093L39.0214 32.6817L37.6588 33.3642C37.1009 34.4434 36.2928 35.3735 35.3021 36.0767L34.9999 36.2797V37.472C34.9999 37.7578 34.895 38.0336 34.7051 38.2471C34.5152 38.4606 34.2535 38.5971 33.9698 38.6305L33.8333 38.6387H30.3333C30.0475 38.6386 29.7717 38.5337 29.5582 38.3438C29.3446 38.1539 29.2082 37.8923 29.1748 37.6085L29.1666 37.472H27.9999C27.9999 37.7578 27.895 38.0336 27.7051 38.2471C27.5152 38.4606 27.2535 38.5971 26.9698 38.6305L26.8333 38.6387H23.3333C23.0475 38.6386 22.7717 38.5337 22.5582 38.3438C22.3446 38.1539 22.2082 37.8923 22.1748 37.6085L22.1666 37.472V36.2797C21.3238 35.7408 20.5957 35.0408 20.0243 34.2197C19.4529 33.3986 19.0494 32.4727 18.8369 31.4952C18.149 31.2904 17.5405 30.8792 17.094 30.3173C16.6474 29.7553 16.3843 29.0698 16.3403 28.3533L16.3333 28.1387V27.5553C16.3336 27.258 16.4474 26.972 16.6516 26.7557C16.8557 26.5395 17.1347 26.4094 17.4315 26.392C17.7284 26.3745 18.0207 26.4711 18.2487 26.662C18.4768 26.8528 18.6233 27.1236 18.6584 27.4188L18.6666 27.5553V28.1387C18.6666 28.3113 18.7039 28.4758 18.7716 28.6228C18.9497 27.5725 19.3469 26.5714 19.9375 25.6848C20.528 24.7981 21.2987 24.0458 22.1993 23.4767C22.1165 22.7422 22.1897 21.9986 22.4141 21.2944C22.6386 20.5902 23.0092 19.9414 23.5017 19.3903C23.9942 18.8392 24.5975 18.3983 25.2721 18.0965C25.9467 17.7946 26.6775 17.6386 27.4166 17.6387ZM32.6666 26.972C32.3572 26.972 32.0604 27.0949 31.8416 27.3137C31.6228 27.5325 31.4999 27.8293 31.4999 28.1387C31.4999 28.4481 31.6228 28.7448 31.8416 28.9636C32.0604 29.1824 32.3572 29.3053 32.6666 29.3053C32.976 29.3053 33.2728 29.1824 33.4915 28.9636C33.7103 28.7448 33.8333 28.4481 33.8333 28.1387C33.8333 27.8293 33.7103 27.5325 33.4915 27.3137C33.2728 27.0949 32.976 26.972 32.6666 26.972ZM27.4166 19.972C26.7099 19.972 26.0273 20.2286 25.4956 20.694C24.9638 21.1594 24.6191 21.8021 24.5256 22.5025C25.091 22.3712 25.6695 22.3051 26.2499 22.3053H30.1898L30.2714 22.2855C30.1331 21.631 29.7739 21.0439 29.2541 20.6227C28.7344 20.2014 28.0856 19.9717 27.4166 19.972Z" fill="#FFCE53"/>
</g>
<defs>
<clipPath id="clip0_170_2741">
<rect width="28" height="28" fill="white" transform="translate(14 14.1387)"/>
</clipPath>
</defs>
</svg>
