<svg xmlns="http://www.w3.org/2000/svg" width="33" height="32" viewBox="0 0 33 32" fill="none">
<path d="M25.0904 30.1115C28.1814 30.1115 30.687 27.6059 30.687 24.515C30.687 21.4242 28.1814 18.9185 25.0904 18.9185C21.9995 18.9185 19.4939 21.4242 19.4939 24.515C19.4939 27.6059 21.9995 30.1115 25.0904 30.1115Z" fill="#FFF5F4"/>
<path d="M7.90962 30.1115C11.0005 30.1115 13.5062 27.6059 13.5062 24.515C13.5062 21.4242 11.0005 18.9185 7.90962 18.9185C4.81872 18.9185 2.31306 21.4242 2.31306 24.515C2.31306 27.6059 4.81872 30.1115 7.90962 30.1115Z" fill="#FFF5F4"/>
<path d="M25.0904 30.1115C28.1814 30.1115 30.687 27.6059 30.687 24.515C30.687 21.4242 28.1814 18.9185 25.0904 18.9185C21.9995 18.9185 19.4939 21.4242 19.4939 24.515C19.4939 27.6059 21.9995 30.1115 25.0904 30.1115Z" stroke="#828DA9" stroke-width="2" stroke-linecap="round" stroke-linejoin="round"/>
<path d="M7.90962 30.1115C11.0005 30.1115 13.5062 27.6059 13.5062 24.515C13.5062 21.4242 11.0005 18.9185 7.90962 18.9185C4.81872 18.9185 2.31306 21.4242 2.31306 24.515C2.31306 27.6059 4.81872 30.1115 7.90962 30.1115Z" stroke="#828DA9" stroke-width="2" stroke-linecap="round" stroke-linejoin="round"/>
<path d="M25.1453 24.4421L21.8019 8.18974C23.0092 8.18974 23.0934 8.18974 25.8424 8.18974C28.5914 8.18974 29.0927 10.2947 28.9999 11.3472" stroke="#828DA9" stroke-width="2" stroke-linecap="round" stroke-linejoin="round"/>
<path d="M22.6857 13.0819L8.01173 24.4005M9.10446 10.9749H14.334" stroke="#828DA9" stroke-width="2" stroke-linecap="round" stroke-linejoin="round"/>
<path d="M11.5243 11.0536L16.2855 18.0781" stroke="#828DA9" stroke-width="2" stroke-linecap="round" stroke-linejoin="round"/>
</svg>