<svg xmlns="http://www.w3.org/2000/svg" width="80" height="64" viewBox="0 0 80 64" fill="none">
  <path d="M66.9302 16.0218L79.15 29.6783C80.2833 30.9449 80.2833 32.8649 79.15 34.1315L53.717 62.5578C53.0837 63.2678 52.177 63.6711 51.2237 63.6711H24.2974L66.9302 16.0218ZM22.6308 63.6711H3.35105C0.461092 63.6711 -1.06889 60.2545 0.857753 58.1012L52.4937 0.388669C52.957 0.578666 53.377 0.871995 53.717 1.25199L65.8202 14.7785C65.7744 14.8193 65.731 14.8627 65.6902 14.9085L23.0541 62.5611C22.7806 62.8661 22.6298 63.2615 22.6308 63.6711ZM50.4837 0.138672L23.1774 30.6549L0.857753 5.70859C-1.06889 3.55529 0.461092 0.138672 3.35105 0.138672H50.4837Z" fill="#FFCE53"/>
</svg>