<svg width="395" height="155" viewBox="0 0 395 155" fill="none" xmlns="http://www.w3.org/2000/svg">
<path d="M2 111.428C2.29641 114.095 8.37276 118.828 10.2034 120.452C16.9593 126.445 23.1612 131.625 31.1806 135.921C49.1945 145.571 65.5941 151.831 86.026 149.984C100.894 148.64 110.847 143.623 122.824 134.866C130.135 129.521 137.662 121.94 136.77 112.248C135.233 95.5665 119.176 91.479 106.007 99.8845C91.0105 109.457 89.5535 123.409 101.671 136.565C118.739 155.096 143.998 152.562 167.181 152.562C188.464 152.562 208.436 145.208 227.475 136.097C250.33 125.159 267.425 106.72 287.653 91.9741C299.94 83.0174 309.998 71.7734 321.228 61.6216C331.586 52.2591 342.174 43.0869 352.694 33.906C359.742 27.7551 366.832 21.8546 374.667 16.7375C377.211 15.0764 380.064 13.6823 381.699 11.2295" stroke="#1B1725" stroke-width="3" stroke-linecap="round" stroke-linejoin="round" stroke-dasharray="8 8"/>
<path d="M357.642 5.13867L393.142 1.13867L388.642 31.6387" stroke="black" stroke-width="2"/>
</svg>
