 <svg xmlns="http://www.w3.org/2000/svg" width="80" height="81" viewBox="0 0 80 81" fill="none">
                <path d="M40.0001 70.1387C39.0556 70.1387 38.2634 69.8187 37.6234 69.1787C36.9834 68.5387 36.6645 67.7476 36.6668 66.8053C36.6668 65.8609 36.9868 65.0687 37.6268 64.4287C38.2668 63.7887 39.0579 63.4698 40.0001 63.472H63.3334V39.8053C63.3334 33.3053 61.069 27.7909 56.5401 23.262C52.0112 18.7331 46.4979 16.4698 40.0001 16.472C33.5001 16.472 27.9856 18.7365 23.4568 23.2653C18.9279 27.7942 16.6645 33.3076 16.6668 39.8053V56.8053C16.6668 57.7498 16.3468 58.542 15.7068 59.182C15.0668 59.822 14.2756 60.1409 13.3334 60.1387C11.5001 60.1387 9.93009 59.4853 8.62342 58.1787C7.31675 56.872 6.66453 55.3031 6.66675 53.472V46.8053C6.66675 45.6387 6.95898 44.5409 7.54342 43.512C8.12786 42.4831 8.94675 41.6642 10.0001 41.0553L10.2501 36.6387C10.6945 32.8609 11.7923 29.3609 13.5434 26.1387C15.2945 22.9165 17.489 20.1109 20.1268 17.722C22.7623 15.3331 25.7879 13.472 29.2034 12.1387C32.619 10.8053 36.2179 10.1387 40.0001 10.1387C43.7779 10.1387 47.3612 10.8053 50.7501 12.1387C54.139 13.472 57.1668 15.3198 59.8334 17.682C62.5001 20.042 64.6945 22.8331 66.4168 26.0553C68.139 29.2776 69.2501 32.7776 69.7501 36.5553L70.0001 40.8887C71.0556 41.3887 71.8756 42.1387 72.4601 43.1387C73.0445 44.1387 73.3356 45.1942 73.3334 46.3053V53.972C73.3334 55.0831 73.0412 56.1387 72.4568 57.1387C71.8723 58.1387 71.0534 58.8887 70.0001 59.3887V63.472C70.0001 65.3053 69.3468 66.8753 68.0401 68.182C66.7334 69.4887 65.1645 70.1409 63.3334 70.1387H40.0001ZM30.0001 46.8053C29.0556 46.8053 28.2634 46.4853 27.6234 45.8453C26.9834 45.2053 26.6645 44.4142 26.6668 43.472C26.6668 42.5276 26.9868 41.7353 27.6268 41.0953C28.2668 40.4553 29.0579 40.1364 30.0001 40.1387C30.9445 40.1387 31.7368 40.4587 32.3768 41.0987C33.0168 41.7387 33.3356 42.5298 33.3334 43.472C33.3334 44.4165 33.0134 45.2087 32.3734 45.8487C31.7334 46.4887 30.9423 46.8076 30.0001 46.8053ZM50.0001 46.8053C49.0556 46.8053 48.2634 46.4853 47.6234 45.8453C46.9834 45.2053 46.6645 44.4142 46.6668 43.472C46.6668 42.5276 46.9868 41.7353 47.6268 41.0953C48.2668 40.4553 49.0579 40.1364 50.0001 40.1387C50.9445 40.1387 51.7368 40.4587 52.3768 41.0987C53.0168 41.7387 53.3356 42.5298 53.3334 43.472C53.3334 44.4165 53.0134 45.2087 52.3734 45.8487C51.7334 46.4887 50.9423 46.8076 50.0001 46.8053ZM20.0834 41.6387C19.6945 35.7498 21.4723 30.6942 25.4168 26.472C29.3612 22.2498 34.2779 20.1387 40.1668 20.1387C45.1112 20.1387 49.459 21.7076 53.2101 24.8453C56.9612 27.9831 59.2245 31.9976 60.0001 36.8887C54.9445 36.8331 50.2912 35.472 46.0401 32.8053C41.789 30.1387 38.5256 26.5276 36.2501 21.972C35.3612 26.4165 33.4856 30.3753 30.6234 33.8487C27.7612 37.322 24.2456 39.9187 20.0834 41.6387Z" fill="#FFCE53" />
            </svg>