<svg width="56" height="57" viewBox="0 0 56 57" fill="none" xmlns="http://www.w3.org/2000/svg">
<circle cx="28" cy="28.1387" r="28" fill="#1B1725"/>
<path d="M26.25 20.3887C26.4489 20.3887 26.6397 20.4677 26.7803 20.6083C26.921 20.749 27 20.9398 27 21.1387V29.1387H35C35.1812 29.1387 35.3563 29.2043 35.4929 29.3234C35.6295 29.4426 35.7184 29.6071 35.743 29.7867L35.75 29.8887C35.75 34.8587 31.72 38.3887 26.75 38.3887C24.3631 38.3887 22.0739 37.4405 20.386 35.7526C18.6982 34.0648 17.75 31.7756 17.75 29.3887C17.75 24.4187 21.28 20.3887 26.25 20.3887ZM29.25 17.8887C31.6369 17.8887 33.9261 18.8369 35.614 20.5247C37.3018 22.2125 38.25 24.5017 38.25 26.8887C38.25 27.0876 38.171 27.2783 38.0303 27.419C37.8897 27.5597 37.6989 27.6387 37.5 27.6387H29.25C29.0511 27.6387 28.8603 27.5597 28.7197 27.419C28.579 27.2783 28.5 27.0876 28.5 26.8887V18.6387C28.5 18.4398 28.579 18.249 28.7197 18.1083C28.8603 17.9677 29.0511 17.8887 29.25 17.8887Z" fill="#FFCE53"/>
</svg>
