<svg width="56" height="57" viewBox="0 0 56 57" fill="none" xmlns="http://www.w3.org/2000/svg">
<circle cx="28" cy="28.1387" r="28" fill="#1B1725"/>
<g clip-path="url(#clip0_170_2689)">
<g clip-path="url(#clip1_170_2689)">
<path d="M36.0791 23.3736L39.7451 27.4706C40.0851 27.8506 40.0851 28.4266 39.7451 28.8066L32.1151 37.3346C31.9251 37.5476 31.6531 37.6686 31.3671 37.6686H23.2891L36.0791 23.3736ZM22.7891 37.6686H17.0051C16.1381 37.6686 15.6791 36.6436 16.2571 35.9976L31.7481 18.6836C31.8871 18.7406 32.0131 18.8286 32.1151 18.9426L35.7461 23.0006C35.7323 23.0129 35.7193 23.0259 35.7071 23.0396L22.9161 37.3356C22.834 37.4271 22.7888 37.5458 22.7891 37.6686ZM31.1451 18.6086L22.9531 27.7636L16.2571 20.2796C15.6791 19.6336 16.1381 18.6086 17.0051 18.6086H31.1451Z" fill="#FFCE53"/>
</g>
</g>
<defs>
<clipPath id="clip0_170_2689">
<rect width="24" height="24" fill="white" transform="translate(16 16.1387)"/>
</clipPath>
<clipPath id="clip1_170_2689">
<rect width="24" height="24" fill="white" transform="translate(16 16.1387)"/>
</clipPath>
</defs>
</svg>
