<svg xmlns="http://www.w3.org/2000/svg" width="24" height="24" viewBox="0 0 24 24" fill="none">
<path d="M1.76857 18.0629C1.97241 19.7049 3.29888 21.0019 4.94447 21.174C7.22156 21.412 9.58155 21.6633 12 21.6633C14.4184 21.6633 16.7784 21.412 19.0555 21.174C20.701 21.0019 22.0275 19.7049 22.2314 18.0629C22.4748 16.1025 22.7143 14.0752 22.7143 12C22.7143 9.92478 22.4748 7.89745 22.2314 5.9371C22.0275 4.29516 20.701 2.99806 19.0555 2.82603C16.7784 2.588 14.4184 2.33667 12 2.33667C9.58155 2.33667 7.22154 2.588 4.94447 2.82603C3.29888 2.99806 1.97241 4.29516 1.76855 5.9371C1.52517 7.89745 1.28571 9.92478 1.28571 12C1.28571 14.0752 1.52517 16.1025 1.76857 18.0629Z" fill="#FFF3F1"/>
<path d="M1.76857 18.0629C1.97241 19.7049 3.29888 21.0019 4.94447 21.174C7.22156 21.412 9.58155 21.6633 12 21.6633C14.4184 21.6633 16.7784 21.412 19.0555 21.174C20.701 21.0019 22.0275 19.7049 22.2314 18.0629C22.4748 16.1025 22.7143 14.0752 22.7143 12C22.7143 9.92478 22.4748 7.89745 22.2314 5.9371C22.0275 4.29516 20.701 2.99806 19.0555 2.82603C16.7784 2.588 14.4184 2.33667 12 2.33667C9.58155 2.33667 7.22154 2.588 4.94447 2.82603C3.29888 2.99806 1.97241 4.29516 1.76855 5.9371C1.52517 7.89745 1.28571 9.92478 1.28571 12C1.28571 14.0752 1.52517 16.1025 1.76857 18.0629Z" stroke="#ED0027" stroke-width="1.71429"/>
<path d="M1.81641 5.49316L9.87718 11.8488C11.1222 12.8304 12.8778 12.8304 14.1228 11.8488L22.1835 5.49316" stroke="#ED0027" stroke-width="1.71429" stroke-linejoin="round"/>
</svg>