<svg xmlns="http://www.w3.org/2000/svg" width="80" height="81" viewBox="0 0 80 81" fill="none">
  <path d="M37.4666 36.1164C45.395 36.1164 51.8222 29.6892 51.8222 21.7608C51.8222 13.8325 45.395 7.40527 37.4666 7.40527C29.5383 7.40527 23.1111 13.8325 23.1111 21.7608C23.1111 29.6892 29.5383 36.1164 37.4666 36.1164Z" fill="#FFCE53"/>
  <path d="M46.6665 62.3608H62.2221V65.4719H46.6665V62.3608Z" fill="#FFCE53"/>
  <path d="M33.3333 66.8054V73.472C33.3333 74.0614 33.5674 74.6266 33.9841 75.0434C34.4009 75.4601 34.9661 75.6943 35.5555 75.6943H73.3333C73.9226 75.6943 74.4879 75.4601 74.9046 75.0434C75.3214 74.6266 75.5555 74.0614 75.5555 73.472V51.2498C75.5555 50.6604 75.3214 50.0952 74.9046 49.6785C74.4879 49.2617 73.9226 49.0276 73.3333 49.0276H57.7777V45.7609C57.7777 45.1716 57.5436 44.6063 57.1268 44.1896C56.7101 43.7728 56.1449 43.5387 55.5555 43.5387C54.9661 43.5387 54.4009 43.7728 53.9841 44.1896C53.5674 44.6063 53.3333 45.1716 53.3333 45.7609V49.0276H48.8888V41.072C45.1126 40.4553 41.2929 40.1432 37.4666 40.1387C29.0284 40.1028 20.6847 41.9157 13.0222 45.4498C11.761 46.045 10.6971 46.9894 9.95655 48.1711C9.21604 49.3527 8.83005 50.722 8.84438 52.1165V66.8054H33.3333ZM71.111 71.2498H37.7777V53.472H53.3333V54.4054C53.3333 54.9947 53.5674 55.56 53.9841 55.9767C54.4009 56.3935 54.9661 56.6276 55.5555 56.6276C56.1449 56.6276 56.7101 56.3935 57.1268 55.9767C57.5436 55.56 57.7777 54.9947 57.7777 54.4054V53.472H71.111V71.2498Z" fill="#FFCE53"/>
</svg>