<svg width="40" height="40" viewBox="0 0 40 40" fill="none" xmlns="http://www.w3.org/2000/svg">
<circle cx="20" cy="20" r="20" fill="#FFA800"/>
<path d="M15.9618 10.9802C15.8101 11.1316 15.6898 11.3114 15.6077 11.5094C15.5255 11.7073 15.4833 11.9195 15.4833 12.1338C15.4833 12.3482 15.5255 12.5604 15.6077 12.7583C15.6898 12.9563 15.8101 13.1361 15.9618 13.2875L22.3109 19.6366L15.9618 25.9857C15.6559 26.2916 15.484 26.7066 15.484 27.1393C15.484 27.572 15.6559 27.987 15.9618 28.2929C16.2678 28.5989 16.6828 28.7708 17.1155 28.7708C17.5482 28.7708 17.9631 28.5989 18.2691 28.2929L25.78 20.782C25.9317 20.6306 26.0521 20.4508 26.1342 20.2529C26.2163 20.0549 26.2585 19.8427 26.2585 19.6284C26.2585 19.4141 26.2163 19.2019 26.1342 19.0039C26.0521 18.806 25.9317 18.6261 25.78 18.4748L18.2691 10.9638C17.6473 10.342 16.6 10.342 15.9618 10.9802Z" fill="white"/>
</svg>
