<svg xmlns="http://www.w3.org/2000/svg" width="32" height="32" viewBox="0 0 32 32" fill="none">
<path d="M10.3197 29.3433L11.4464 30.2823H25.896C26.8444 28.8256 27.3054 27.4153 27.4464 25.7109C27.8418 20.9307 23.4594 17.7737 18.3036 17.7737V10.2824C18.3036 8.70441 17.0244 7.42521 15.4464 7.42521C13.8685 7.42521 12.5893 8.70441 12.5893 10.2824V21.1395L11.4455 21.6297C8.3081 22.9744 7.69747 27.1582 10.3197 29.3433Z" fill="#FFF3F1"/>
<path d="M7.58289 11.534C7.44691 10.9494 7.375 10.3403 7.375 9.71429C7.375 5.296 10.9567 1.71429 15.375 1.71429C19.7933 1.71429 23.3751 5.296 23.3751 9.71429C23.3751 10.3403 23.3031 10.9494 23.1671 11.534" stroke="#ED0027" stroke-width="2.28571" stroke-linecap="round"/>
<path d="M11.4464 30.2823L10.3197 29.3433C7.69747 27.1582 8.3081 22.9744 11.4454 21.6297L12.5893 21.1395V10.2824C12.5893 8.70441 13.8685 7.42521 15.4464 7.42521C17.0244 7.42521 18.3036 8.70441 18.3036 10.2824V17.7737C23.4594 17.7737 27.8418 20.9307 27.4464 25.7109C27.3054 27.4153 26.8444 28.8256 25.896 30.2823" stroke="#ED0027" stroke-width="2.28571" stroke-linecap="round" stroke-linejoin="round"/>
</svg>