<svg width="28" height="29" viewBox="0 0 28 29" fill="none" xmlns="http://www.w3.org/2000/svg">
<circle cx="13.5484" cy="14.5" r="13.5484" fill="#FFA800"/>
<path d="M13.9373 9.74595C11.5207 9.74595 9.57146 11.6956 9.57146 14.1128C9.57146 16.53 11.5207 18.4797 13.9373 18.4797C16.354 18.4797 18.3032 16.53 18.3032 14.1128C18.3032 11.6956 16.354 9.74595 13.9373 9.74595ZM13.9373 16.9518C12.3757 16.9518 11.0989 15.6786 11.0989 14.1128C11.0989 12.547 12.3719 11.2738 13.9373 11.2738C15.5028 11.2738 16.7757 12.547 16.7757 14.1128C16.7757 15.6786 15.499 16.9518 13.9373 16.9518ZM19.5001 9.56733C19.5001 10.1336 19.0442 10.5859 18.4818 10.5859C17.9157 10.5859 17.4635 10.1298 17.4635 9.56733C17.4635 9.00484 17.9195 8.54877 18.4818 8.54877C19.0442 8.54877 19.5001 9.00484 19.5001 9.56733ZM22.3917 10.6011C22.3271 9.23668 22.0156 8.0281 21.0162 7.03235C20.0207 6.0366 18.8124 5.72495 17.4483 5.65654C16.0424 5.57673 11.8285 5.57673 10.4226 5.65654C9.0623 5.72115 7.85398 6.0328 6.85466 7.02854C5.85533 8.02429 5.54755 9.23288 5.47916 10.5973C5.39936 12.0035 5.39936 16.2183 5.47916 17.6245C5.54375 18.9889 5.85533 20.1975 6.85466 21.1933C7.85398 22.189 9.0585 22.5007 10.4226 22.5691C11.8285 22.6489 16.0424 22.6489 17.4483 22.5691C18.8124 22.5045 20.0207 22.1928 21.0162 21.1933C22.0118 20.1975 22.3233 18.9889 22.3917 17.6245C22.4715 16.2183 22.4715 12.0073 22.3917 10.6011ZM20.5755 19.1334C20.2791 19.8783 19.7053 20.4522 18.9568 20.7524C17.8359 21.1971 15.1761 21.0945 13.9373 21.0945C12.6986 21.0945 10.035 21.1933 8.91791 20.7524C8.17316 20.456 7.5994 19.8821 7.29922 19.1334C6.85466 18.0122 6.95725 15.3518 6.95725 14.1128C6.95725 12.8738 6.85846 10.2096 7.29922 9.09225C7.5956 8.34734 8.16936 7.77346 8.91791 7.47321C10.0388 7.02854 12.6986 7.13116 13.9373 7.13116C15.1761 7.13116 17.8397 7.03235 18.9568 7.47321C19.7015 7.76966 20.2753 8.34354 20.5755 9.09225C21.02 10.2134 20.9174 12.8738 20.9174 14.1128C20.9174 15.3518 21.02 18.016 20.5755 19.1334Z" fill="white"/>
</svg>
