<svg xmlns="http://www.w3.org/2000/svg" width="80" height="81" viewBox="0 0 80 81" fill="none">
  <path d="M20 13.4718V26.8052H60V13.4718H66.69C68.5167 13.4718 70 14.9552 70 16.7818V70.1618C69.9991 71.0394 69.6501 71.8808 69.0295 72.5014C68.409 73.1219 67.5676 73.471 66.69 73.4718H13.31C12.4321 73.4718 11.5902 73.1231 10.9695 72.5024C10.3487 71.8816 10 71.0397 10 70.1618V16.7818C10 14.9552 11.4833 13.4718 13.31 13.4718H20ZM30 56.8052H23.3333V63.4718H30V56.8052ZM30 46.8052H23.3333V53.4718H30V46.8052ZM30 36.8052H23.3333V43.4718H30V36.8052ZM53.3333 6.80518V20.1385H26.6667V6.80518H53.3333Z" fill="#FFCE53"/>
</svg>