<svg width="237" height="24" viewBox="0 0 237 24" fill="none" xmlns="http://www.w3.org/2000/svg">
<path d="M12.8792 17.9075C12.8792 16.9203 12.5296 16.1594 11.8303 15.6247C11.1414 15.09 9.89203 14.5501 8.08226 14.0051C6.27249 13.4602 4.8329 12.8535 3.7635 12.1851C1.71722 10.8997 0.694087 9.22365 0.694087 7.15681C0.694087 5.34704 1.42931 3.85604 2.89974 2.6838C4.38046 1.51157 6.2982 0.92545 8.65296 0.92545C10.2159 0.92545 11.6093 1.21337 12.8329 1.7892C14.0566 2.36504 15.018 3.18766 15.7172 4.25707C16.4165 5.3162 16.7661 6.49357 16.7661 7.7892H12.8792C12.8792 6.61697 12.509 5.7018 11.7686 5.0437C11.0386 4.37532 9.98972 4.04113 8.62211 4.04113C7.34704 4.04113 6.35476 4.31362 5.64524 4.85861C4.94601 5.4036 4.5964 6.16452 4.5964 7.14139C4.5964 7.96401 4.97686 8.65296 5.73779 9.20823C6.49871 9.75321 7.75321 10.2879 9.50128 10.8123C11.2494 11.3265 12.653 11.9177 13.7121 12.5861C14.7712 13.2442 15.5476 14.0051 16.0411 14.8689C16.5347 15.7224 16.7815 16.7249 16.7815 17.8766C16.7815 19.7481 16.0617 21.2391 14.6221 22.3496C13.1928 23.4499 11.2494 24 8.79177 24C7.16709 24 5.67095 23.7018 4.30334 23.1054C2.94602 22.4987 1.88689 21.6658 1.12596 20.6067C0.375321 19.5476 0 18.3136 0 16.9049H3.90231C3.90231 18.1799 4.32391 19.1671 5.16709 19.8663C6.01028 20.5656 7.21851 20.9152 8.79177 20.9152C10.1491 20.9152 11.1671 20.6427 11.8458 20.0977C12.5347 19.5424 12.8792 18.8123 12.8792 17.9075Z" fill="#616161"/>
<path d="M29.9537 22.0566C28.8535 23.3522 27.2905 24 25.2648 24C23.455 24 22.0823 23.4704 21.1465 22.4113C20.2211 21.3522 19.7584 19.8201 19.7584 17.8149V7.00257H23.5064V17.7686C23.5064 19.8869 24.3856 20.946 26.144 20.946C27.964 20.946 29.1928 20.2931 29.8303 18.9871V7.00257H33.5784V23.6915H30.0463L29.9537 22.0566Z" fill="#616161"/>
<path d="M40.874 7.00257L40.982 8.93059C42.2159 7.43959 43.8355 6.69409 45.8406 6.69409C49.3162 6.69409 51.0848 8.6838 51.1465 12.6632V23.6915H47.3985V12.8792C47.3985 11.8201 47.1671 11.0386 46.7044 10.5347C46.2519 10.0206 45.5064 9.7635 44.4679 9.7635C42.9563 9.7635 41.8303 10.4473 41.09 11.8149V23.6915H37.3419V7.00257H40.874Z" fill="#616161"/>
<path d="M87.9332 19.1568C87.9332 18.4884 87.6555 17.9794 87.1003 17.6298C86.5553 17.2802 85.6452 16.9717 84.3702 16.7044C83.0951 16.437 82.0308 16.0977 81.1774 15.6864C79.3059 14.7815 78.3702 13.4704 78.3702 11.7532C78.3702 10.3136 78.9769 9.11054 80.1902 8.14396C81.4036 7.17738 82.946 6.69409 84.8175 6.69409C86.8123 6.69409 88.4216 7.18766 89.6452 8.17481C90.8792 9.16195 91.4961 10.4422 91.4961 12.0154H87.7481C87.7481 11.2956 87.4807 10.6992 86.946 10.2262C86.4113 9.74293 85.7018 9.50129 84.8175 9.50129C83.9949 9.50129 83.3213 9.69152 82.7969 10.072C82.2828 10.4524 82.0257 10.9614 82.0257 11.599C82.0257 12.1748 82.2673 12.6221 82.7506 12.9409C83.2339 13.2596 84.2108 13.5835 85.6812 13.9126C87.1517 14.2314 88.3033 14.617 89.1362 15.0694C89.9794 15.5116 90.6015 16.0463 91.0026 16.6735C91.4139 17.3008 91.6195 18.0617 91.6195 18.9563C91.6195 20.4576 90.9974 21.6761 89.7532 22.6118C88.509 23.5373 86.8792 24 84.8637 24C83.4961 24 82.2776 23.7532 81.2082 23.2596C80.1388 22.7661 79.3059 22.0874 78.7095 21.2236C78.1131 20.3599 77.8149 19.4293 77.8149 18.4319H81.455C81.5064 19.3162 81.8406 20 82.4576 20.4833C83.0745 20.9563 83.892 21.1928 84.91 21.1928C85.8972 21.1928 86.6478 21.0077 87.1619 20.6375C87.6761 20.2571 87.9332 19.7635 87.9332 19.1568Z" fill="#616161"/>
<path d="M102.247 24C99.8715 24 97.9434 23.2545 96.4627 21.7635C94.9923 20.2622 94.2571 18.2674 94.2571 15.7789V15.3162C94.2571 13.6504 94.5758 12.1645 95.2134 10.8586C95.8612 9.54242 96.7661 8.51928 97.928 7.7892C99.09 7.05913 100.386 6.69409 101.815 6.69409C104.087 6.69409 105.841 7.41902 107.075 8.86889C108.319 10.3188 108.941 12.3702 108.941 15.0231V16.5347H98.036C98.1491 17.9126 98.6067 19.0026 99.4087 19.8046C100.221 20.6067 101.239 21.0077 102.463 21.0077C104.18 21.0077 105.578 20.3136 106.658 18.9254L108.679 20.8535C108.01 21.8509 107.116 22.6272 105.995 23.1825C104.884 23.7275 103.635 24 102.247 24ZM101.799 9.7018C100.771 9.7018 99.9383 10.0617 99.3008 10.7815C98.6735 11.5013 98.2725 12.5039 98.0977 13.7892H105.239V13.5116C105.157 12.2571 104.823 11.3111 104.236 10.6735C103.65 10.0257 102.838 9.7018 101.799 9.7018Z" fill="#616161"/>
<path d="M116.56 2.94602V7.00257H119.506V9.77892H116.56V19.0951C116.56 19.7326 116.684 20.1954 116.931 20.4833C117.188 20.7609 117.64 20.8997 118.288 20.8997C118.72 20.8997 119.157 20.8483 119.599 20.7455V23.6452C118.745 23.8817 117.923 24 117.131 24C114.252 24 112.812 22.4113 112.812 19.2339V9.77892H110.067V7.00257H112.812V2.94602H116.56Z" fill="#616161"/>
<path d="M130.997 15.0386H126.648V23.6915H122.745V1.23393H130.643C133.234 1.23393 135.234 1.81491 136.643 2.97686C138.051 4.13882 138.756 5.82005 138.756 8.02057C138.756 9.52185 138.391 10.7815 137.661 11.7995C136.941 12.8072 135.933 13.5835 134.638 14.1285L139.681 23.491V23.6915H135.501L130.997 15.0386ZM126.648 11.9075H130.658C131.974 11.9075 133.003 11.5784 133.743 10.9203C134.483 10.2519 134.853 9.3419 134.853 8.19023C134.853 6.98715 134.509 6.05656 133.82 5.39846C133.141 4.74036 132.123 4.40103 130.766 4.38046H126.648V11.9075Z" fill="#616161"/>
<path d="M149.445 24C147.069 24 145.141 23.2545 143.661 21.7635C142.19 20.2622 141.455 18.2674 141.455 15.7789V15.3162C141.455 13.6504 141.774 12.1645 142.411 10.8586C143.059 9.54242 143.964 8.51928 145.126 7.7892C146.288 7.05913 147.584 6.69409 149.013 6.69409C151.285 6.69409 153.039 7.41902 154.272 8.86889C155.517 10.3188 156.139 12.3702 156.139 15.0231V16.5347H145.234C145.347 17.9126 145.805 19.0026 146.607 19.8046C147.419 20.6067 148.437 21.0077 149.661 21.0077C151.378 21.0077 152.776 20.3136 153.856 18.9254L155.877 20.8535C155.208 21.8509 154.314 22.6272 153.193 23.1825C152.082 23.7275 150.833 24 149.445 24ZM148.997 9.7018C147.969 9.7018 147.136 10.0617 146.499 10.7815C145.871 11.5013 145.47 12.5039 145.296 13.7892H152.437V13.5116C152.355 12.2571 152.021 11.3111 151.434 10.6735C150.848 10.0257 150.036 9.7018 148.997 9.7018Z" fill="#616161"/>
<path d="M169.033 23.6915C168.869 23.3728 168.725 22.8535 168.602 22.1337C167.409 23.3779 165.949 24 164.221 24C162.545 24 161.177 23.5219 160.118 22.5656C159.059 21.6093 158.53 20.4267 158.53 19.018C158.53 17.2391 159.188 15.8766 160.504 14.9306C161.83 13.9743 163.722 13.4961 166.18 13.4961H168.478V12.401C168.478 11.5373 168.236 10.8483 167.753 10.3342C167.27 9.80977 166.535 9.54756 165.548 9.54756C164.694 9.54756 163.995 9.7635 163.45 10.1954C162.905 10.617 162.632 11.1568 162.632 11.8149H158.884C158.884 10.8997 159.188 10.0463 159.794 9.2545C160.401 8.45244 161.224 7.82519 162.262 7.37275C163.311 6.92031 164.478 6.69409 165.763 6.69409C167.717 6.69409 169.275 7.18766 170.437 8.17481C171.599 9.15167 172.195 10.5296 172.226 12.3085V19.8355C172.226 21.3368 172.437 22.5347 172.859 23.4293V23.6915H169.033ZM164.915 20.9923C165.656 20.9923 166.35 20.8123 166.997 20.4524C167.656 20.0925 168.149 19.6093 168.478 19.0026V15.856H166.458C165.069 15.856 164.026 16.0977 163.326 16.581C162.627 17.0643 162.278 17.7481 162.278 18.6324C162.278 19.3522 162.514 19.928 162.987 20.3599C163.47 20.7815 164.113 20.9923 164.915 20.9923Z" fill="#616161"/>
<path d="M180.139 23.6915H176.391V0H180.139V23.6915Z" fill="#616161"/>
<path d="M188.931 2.94602V7.00257H191.877V9.77892H188.931V19.0951C188.931 19.7326 189.054 20.1954 189.301 20.4833C189.558 20.7609 190.01 20.8997 190.658 20.8997C191.09 20.8997 191.527 20.8483 191.969 20.7455V23.6452C191.116 23.8817 190.293 24 189.501 24C186.622 24 185.182 22.4113 185.182 19.2339V9.77892H182.437V7.00257H185.182V2.94602H188.931Z" fill="#616161"/>
<path d="M193.589 15.1928C193.589 13.5578 193.913 12.0874 194.56 10.7815C195.208 9.4653 196.118 8.45758 197.29 7.75835C198.463 7.04884 199.81 6.69409 201.332 6.69409C203.584 6.69409 205.409 7.41902 206.807 8.86889C208.216 10.3188 208.977 12.2416 209.09 14.6375L209.105 15.5167C209.105 17.162 208.787 18.6324 208.149 19.928C207.522 21.2236 206.617 22.2262 205.434 22.9357C204.262 23.6452 202.905 24 201.362 24C199.008 24 197.121 23.2185 195.702 21.6555C194.293 20.0823 193.589 17.9897 193.589 15.3779V15.1928ZM197.337 15.5167C197.337 17.2339 197.691 18.581 198.401 19.5578C199.111 20.5244 200.098 21.0077 201.362 21.0077C202.627 21.0077 203.609 20.5141 204.308 19.527C205.018 18.5398 205.373 17.0951 205.373 15.1928C205.373 13.5064 205.008 12.1697 204.278 11.1825C203.558 10.1954 202.576 9.7018 201.332 9.7018C200.108 9.7018 199.136 10.1902 198.416 11.1671C197.697 12.1337 197.337 13.5835 197.337 15.5167Z" fill="#616161"/>
<path d="M221.013 10.4267C220.519 10.3445 220.01 10.3033 219.486 10.3033C217.769 10.3033 216.612 10.9614 216.015 12.2776V23.6915H212.267V7.00257H215.846L215.938 8.86889C216.843 7.41902 218.098 6.69409 219.702 6.69409C220.236 6.69409 220.679 6.76607 221.028 6.91003L221.013 10.4267Z" fill="#616161"/>
<path d="M232.735 19.1568C232.735 18.4884 232.458 17.9794 231.902 17.6298C231.357 17.2802 230.447 16.9717 229.172 16.7044C227.897 16.437 226.833 16.0977 225.979 15.6864C224.108 14.7815 223.172 13.4704 223.172 11.7532C223.172 10.3136 223.779 9.11054 224.992 8.14396C226.206 7.17738 227.748 6.69409 229.62 6.69409C231.614 6.69409 233.224 7.18766 234.447 8.17481C235.681 9.16195 236.298 10.4422 236.298 12.0154H232.55C232.55 11.2956 232.283 10.6992 231.748 10.2262C231.213 9.74293 230.504 9.50129 229.62 9.50129C228.797 9.50129 228.123 9.69152 227.599 10.072C227.085 10.4524 226.828 10.9614 226.828 11.599C226.828 12.1748 227.069 12.6221 227.553 12.9409C228.036 13.2596 229.013 13.5835 230.483 13.9126C231.954 14.2314 233.105 14.617 233.938 15.0694C234.781 15.5116 235.404 16.0463 235.805 16.6735C236.216 17.3008 236.422 18.0617 236.422 18.9563C236.422 20.4576 235.799 21.6761 234.555 22.6118C233.311 23.5373 231.681 24 229.666 24C228.298 24 227.08 23.7532 226.01 23.2596C224.941 22.7661 224.108 22.0874 223.512 21.2236C222.915 20.3599 222.617 19.4293 222.617 18.4319H226.257C226.308 19.3162 226.643 20 227.26 20.4833C227.877 20.9563 228.694 21.1928 229.712 21.1928C230.699 21.1928 231.45 21.0077 231.964 20.6375C232.478 20.2571 232.735 19.7635 232.735 19.1568Z" fill="#616161"/>
<mask id="path-2-inside-1_8609_3473" fill="white">
<path d="M76.8134 11.8336L65.0387 0L53.188 11.8323C53.0662 11.9581 52.9987 12.1268 53 12.3021C53.0013 12.4773 53.0712 12.645 53.1947 12.7691C53.3182 12.8932 53.4855 12.9637 53.6604 12.9655C53.8353 12.9672 54.0039 12.9001 54.1299 12.7785L56.3274 10.5846V23.3317C56.3274 23.509 56.3977 23.6789 56.5228 23.8043C56.6479 23.9296 56.8176 24 56.9945 24H61.6644C61.8413 24 62.011 23.9296 62.1361 23.8043C62.2612 23.6789 62.3315 23.509 62.3315 23.3317V17.9856C62.3315 17.6312 62.4721 17.2912 62.7223 17.0406C62.9725 16.7899 63.3119 16.6491 63.6657 16.6491H66.3342C66.6881 16.6491 67.0275 16.7899 67.2777 17.0406C67.5279 17.2912 67.6685 17.6312 67.6685 17.9856V23.3317C67.6685 23.509 67.7388 23.6789 67.8639 23.8043C67.989 23.9296 68.1587 24 68.3356 24H73.0054C73.1824 24 73.3521 23.9296 73.4772 23.8043C73.6023 23.6789 73.6726 23.509 73.6726 23.3317V10.5699L75.8687 12.7772C75.9944 12.8991 76.1628 12.9667 76.3377 12.9654C76.5126 12.9642 76.6801 12.8941 76.8039 12.7704C76.9278 12.6467 76.9982 12.4792 77 12.3039C77.0017 12.1287 76.9347 11.9598 76.8134 11.8336Z"/>
</mask>
<path d="M76.8134 11.8336L79.6967 9.06112L79.673 9.03648L79.6488 9.01224L76.8134 11.8336ZM65.0387 0L67.8742 -2.82136L65.048 -5.66171L62.2125 -2.83063L65.0387 0ZM53.188 11.8323L50.3617 9.00163L50.3369 9.02642L50.3125 9.05164L53.188 11.8323ZM54.1299 12.7785L56.9073 15.6571L56.9319 15.6334L56.956 15.6093L54.1299 12.7785ZM56.3274 10.5846H60.3274V0.938908L53.5013 7.75388L56.3274 10.5846ZM73.6726 10.5699L76.5081 7.74864L69.6726 0.87849V10.5699H73.6726ZM75.8687 12.7772L73.0332 15.5985L73.058 15.6234L73.0832 15.6479L75.8687 12.7772ZM79.6488 9.01224L67.8742 -2.82136L62.2032 2.82136L73.9779 14.655L79.6488 9.01224ZM62.2125 -2.83063L50.3617 9.00163L56.0142 14.6629L67.8649 2.83063L62.2125 -2.83063ZM50.3125 9.05164C49.4618 9.93133 48.9913 11.1091 49.0001 12.331L56.9999 12.2731C57.0062 13.1446 56.6706 13.9849 56.0634 14.6129L50.3125 9.05164ZM49.0001 12.331C49.009 13.5529 49.4965 14.7238 50.3599 15.5911L56.0296 9.94709C56.6459 10.5662 56.9936 11.4017 56.9999 12.2731L49.0001 12.331ZM50.3599 15.5911C51.2235 16.4586 52.3941 16.9529 53.62 16.9652L53.7008 8.96565C54.5768 8.9745 55.413 9.32772 56.0296 9.94709L50.3599 15.5911ZM53.62 16.9652C54.8459 16.9776 56.0264 16.5071 56.9073 15.6571L51.3525 9.89998C51.9815 9.29309 52.8247 8.95681 53.7008 8.96565L53.62 16.9652ZM56.956 15.6093L59.1535 13.4154L53.5013 7.75388L51.3038 9.94779L56.956 15.6093ZM52.3274 10.5846V23.3317H60.3274V10.5846H52.3274ZM52.3274 23.3317C52.3274 24.5676 52.8175 25.7543 53.692 26.6303L59.3537 20.9783C59.9779 21.6036 60.3274 22.4503 60.3274 23.3317H52.3274ZM53.692 26.6303C54.5667 27.5065 55.7545 28 56.9945 28V20C57.8807 20 58.7292 20.3527 59.3537 20.9783L53.692 26.6303ZM56.9945 28H61.6644V20H56.9945V28ZM61.6644 28C62.9044 28 64.0922 27.5065 64.967 26.6303L59.3053 20.9783C59.9298 20.3527 60.7782 20 61.6644 20V28ZM64.967 26.6303C65.8415 25.7543 66.3315 24.5676 66.3315 23.3317H58.3315C58.3315 22.4503 58.681 21.6036 59.3053 20.9783L64.967 26.6303ZM66.3315 23.3317V17.9856H58.3315V23.3317H66.3315ZM66.3315 17.9856C66.3315 18.6898 66.0523 19.3666 65.5531 19.8666L59.8915 14.2146C58.8919 15.2159 58.3315 16.5725 58.3315 17.9856H66.3315ZM65.5531 19.8666C65.0537 20.3668 64.3749 20.6491 63.6657 20.6491V12.6491C62.2488 12.6491 60.8913 13.213 59.8915 14.2146L65.5531 19.8666ZM63.6657 20.6491H66.3342V12.6491H63.6657V20.6491ZM66.3342 20.6491C65.625 20.6491 64.9462 20.3668 64.4468 19.8666L70.1085 14.2146C69.1087 13.213 67.7511 12.6491 66.3342 12.6491V20.6491ZM64.4468 19.8666C63.9477 19.3665 63.6685 18.6898 63.6685 17.9856H71.6685C71.6685 16.5725 71.1081 15.2159 70.1085 14.2146L64.4468 19.8666ZM63.6685 17.9856V23.3317H71.6685V17.9856H63.6685ZM63.6685 23.3317C63.6685 24.5676 64.1585 25.7543 65.033 26.6303L70.6947 20.9783C71.319 21.6036 71.6685 22.4503 71.6685 23.3317H63.6685ZM65.033 26.6303C65.9077 27.5065 67.0956 28 68.3356 28V20C69.2218 20 70.0702 20.3527 70.6947 20.9783L65.033 26.6303ZM68.3356 28H73.0054V20H68.3356V28ZM73.0054 28C74.2455 28 75.4333 27.5065 76.308 26.6303L70.6463 20.9783C71.2708 20.3527 72.1193 20 73.0054 20V28ZM76.308 26.6303C77.1825 25.7543 77.6726 24.5677 77.6726 23.3317H69.6726C69.6726 22.4503 70.0221 21.6036 70.6463 20.9783L76.308 26.6303ZM77.6726 23.3317V10.5699H69.6726V23.3317H77.6726ZM70.837 13.3912L73.0332 15.5985L78.7043 9.95591L76.5081 7.74864L70.837 13.3912ZM73.0832 15.6479C73.9617 16.5003 75.1408 16.9742 76.3667 16.9653L76.3087 8.96555C77.1848 8.95919 78.027 9.29787 78.6543 9.90651L73.0832 15.6479ZM76.3667 16.9653C77.5927 16.9564 78.7647 16.4655 79.6308 15.6004L73.9771 9.94039C74.5954 9.32278 75.4326 8.97191 76.3087 8.96555L76.3667 16.9653ZM79.6308 15.6004C80.4966 14.7356 80.9875 13.5661 80.9998 12.3442L73.0002 12.2637C73.0089 11.3922 73.359 10.5577 73.9771 9.94039L79.6308 15.6004ZM80.9998 12.3442C81.0121 11.1223 80.5448 9.94319 79.6967 9.06112L73.9301 14.6061C73.3246 13.9764 72.9914 13.1351 73.0002 12.2637L80.9998 12.3442Z" fill="#FFA800" mask="url(#path-2-inside-1_8609_3473)"/>
</svg>
