<svg width="349" height="89" viewBox="0 0 349 89" fill="none" xmlns="http://www.w3.org/2000/svg">
<g clip-path="url(#clip0_170_2870)">
<g clip-path="url(#clip1_170_2870)">
<g clip-path="url(#clip2_170_2870)">
<g clip-path="url(#clip3_170_2870)">
<g clip-path="url(#clip4_170_2870)">
<path d="M131.571 54.963L133.79 59.7385C133.404 60.0279 132.867 60.3398 132.179 60.6742C131.485 61.0151 130.671 61.3303 129.738 61.6197C128.806 61.9091 127.77 62.1503 126.632 62.3432C125.487 62.5362 124.272 62.6327 122.985 62.6327C120.252 62.6327 117.801 62.1599 115.634 61.2145C113.46 60.2626 111.617 58.9827 110.106 57.3748C108.595 55.7669 107.437 53.9018 106.633 51.7794C105.829 49.6569 105.427 47.4059 105.427 45.0262C105.427 42.3892 105.903 39.9613 106.855 37.7424C107.8 35.5235 109.093 33.6101 110.733 32.0022C112.373 30.3943 114.296 29.1402 116.502 28.2398C118.702 27.3393 121.04 26.8891 123.516 26.8891C124.448 26.8891 125.397 26.9534 126.362 27.0821C127.327 27.2107 128.237 27.3876 129.092 27.6127C129.941 27.8378 130.697 28.1015 131.359 28.4038C132.015 28.7125 132.52 29.0276 132.874 29.3492C132.617 29.7351 132.417 30.0567 132.276 30.3139C132.128 30.5712 131.973 30.8381 131.813 31.1147C131.652 31.3848 131.475 31.6967 131.282 32.0505C131.089 32.4042 130.832 32.8705 130.51 33.4493C130.092 33.1599 129.603 32.9187 129.044 32.7258C128.478 32.5328 127.889 32.3721 127.278 32.2434C126.667 32.1148 126.05 32.0183 125.426 31.954C124.796 31.8897 124.223 31.8575 123.709 31.8575C121.844 31.8575 120.117 32.2016 118.528 32.8898C116.933 33.5844 115.557 34.517 114.399 35.6875C113.241 36.8645 112.335 38.2248 111.679 39.7684C111.016 41.312 110.685 42.9199 110.685 44.5921C110.685 46.2321 111 47.8079 111.63 49.3193C112.254 50.8307 113.122 52.1813 114.235 53.3712C115.341 54.561 116.676 55.5097 118.239 56.2172C119.795 56.9246 121.506 57.2784 123.371 57.2784C124.368 57.2784 125.333 57.1819 126.265 56.9889C127.198 56.796 128.044 56.5709 128.803 56.3136C129.555 56.0564 130.182 55.7991 130.684 55.5418C131.179 55.2846 131.475 55.0916 131.571 54.963ZM143.92 62.2468H138.614V27.275H148.165C149.998 27.275 151.677 27.5162 153.201 27.9986C154.732 28.4809 156.05 29.1981 157.156 30.1499C158.269 31.0954 159.131 32.2499 159.742 33.6134C160.353 34.9833 160.658 36.5526 160.658 38.3213C160.658 39.286 160.562 40.2411 160.369 41.1865C160.176 42.1384 159.861 43.0549 159.423 43.936C158.992 44.8236 158.439 45.6436 157.764 46.3961C157.089 47.1551 156.269 47.7918 155.304 48.3063C156.59 50.3323 157.989 52.5737 159.501 55.0305C161.012 57.4938 162.539 59.8992 164.083 62.2468H157.764C157.121 61.2499 156.452 60.2047 155.757 59.1114C155.069 58.018 154.378 56.9311 153.683 55.8506C152.995 54.7765 152.32 53.7153 151.657 52.6669C151.001 51.625 150.384 50.6538 149.805 49.7534H148.84H143.92V62.2468ZM143.92 32.1952V44.785H148.695C149.982 44.785 151.059 44.5663 151.927 44.129C152.796 43.6981 153.477 43.161 153.973 42.5179C154.474 41.8747 154.828 41.1833 155.034 40.4437C155.246 39.7041 155.352 39.0287 155.352 38.4177C155.352 37.8067 155.246 37.1379 155.034 36.4111C154.828 35.6908 154.468 35.0154 153.953 34.3851C153.439 33.7613 152.754 33.2403 151.898 32.8223C151.049 32.4042 149.998 32.1952 148.744 32.1952H143.92ZM168.907 62.2468V25.7314C169.196 26.1817 169.798 27.0403 170.711 28.3073C171.631 29.5807 172.692 31.0536 173.894 32.7258C175.104 34.398 176.383 36.1731 177.734 38.0511C179.085 39.9356 180.352 41.7043 181.535 43.3572C182.731 45.0166 183.77 46.4572 184.651 47.6792C185.539 48.9012 186.127 49.7052 186.417 50.0911C186.513 49.9303 186.815 49.4961 187.324 48.7887C187.845 48.0812 188.481 47.1969 189.234 46.1356C189.993 45.0744 190.855 43.8749 191.819 42.5372C192.784 41.2058 193.771 39.8391 194.781 38.437C195.797 37.0414 196.794 35.6522 197.772 34.2694C198.749 32.8866 199.659 31.6228 200.502 30.478C201.338 29.3396 202.052 28.3459 202.644 27.4969C203.242 26.6415 203.669 26.053 203.927 25.7314V62.2468H198.331V42.6626C198.331 42.4053 198.354 42.132 198.399 41.8426C198.45 41.5531 198.476 41.3441 198.476 41.2155C198.18 41.6014 197.72 42.251 197.096 43.1643C196.473 44.084 195.749 45.1291 194.926 46.2997C194.109 47.4766 193.25 48.7147 192.35 50.0139C191.449 51.3195 190.597 52.5512 189.793 53.7088C188.989 54.8665 188.282 55.8859 187.671 56.7671C187.06 57.6546 186.642 58.2753 186.417 58.629C186.192 58.3396 185.748 57.735 185.085 56.8153C184.429 55.902 183.658 54.8344 182.77 53.6124C181.889 52.3904 180.956 51.088 179.972 49.7052C178.995 48.3224 178.088 47.0361 177.252 45.8462C176.409 44.6564 175.686 43.6338 175.081 42.7784C174.47 41.9294 174.116 41.4084 174.02 41.2155C174.02 41.3441 174.042 41.5531 174.087 41.8426C174.139 42.132 174.165 42.4053 174.165 42.6626V62.2468H168.907ZM222.681 54.0465H208.21C211.201 50.1554 214.352 46.1582 217.665 42.0548C220.977 37.9579 224.144 33.9639 227.167 30.0728V49.7534H231.894V54.0465H227.167V62.2468H222.681V54.0465ZM222.681 49.7534V42.0837L216.796 49.7534H222.681ZM257.942 29.2045L256.061 33.4976C254.743 33.0152 253.434 32.6293 252.135 32.3399C250.829 32.0505 249.581 31.9058 248.391 31.9058C246.366 31.9058 244.751 32.3238 243.549 33.1599C242.339 33.996 241.735 35.0572 241.735 36.3436C241.735 37.4369 242.169 38.3116 243.037 38.9676C243.905 39.6301 244.983 40.225 246.269 40.7524C247.555 41.2862 248.954 41.8168 250.466 42.3442C251.977 42.878 253.376 43.563 254.662 44.3991C255.949 45.2352 257.026 46.2868 257.894 47.5538C258.762 48.8273 259.197 50.4609 259.197 52.4547C259.197 53.9983 258.917 55.3875 258.357 56.6223C257.791 57.8636 256.955 58.9345 255.849 59.8349C254.736 60.7353 253.35 61.4267 251.691 61.9091C250.038 62.3915 248.102 62.6327 245.883 62.6327C244.468 62.6327 243.188 62.5362 242.044 62.3432C240.905 62.1503 239.879 61.8995 238.966 61.5907C238.046 61.2885 237.242 60.9604 236.554 60.6067C235.86 60.253 235.271 59.9314 234.789 59.642L237.104 55.0595C238.39 55.7991 239.821 56.394 241.397 56.8442C242.973 57.2944 244.404 57.5196 245.69 57.5196C246.333 57.5196 247.128 57.4392 248.073 57.2784C249.025 57.1176 249.935 56.8346 250.803 56.4294C251.672 56.0306 252.421 55.4936 253.051 54.8183C253.675 54.143 253.987 53.2908 253.987 52.2617C253.987 51.3292 253.739 50.5316 253.244 49.8692C252.742 49.2132 252.083 48.6343 251.266 48.1327C250.443 47.6374 249.511 47.1872 248.469 46.782C247.42 46.3833 246.349 45.9684 245.256 45.5375C244.163 45.1002 243.092 44.6403 242.044 44.1579C241.002 43.6756 240.069 43.0871 239.246 42.3925C238.429 41.7043 237.773 40.9003 237.278 39.9806C236.776 39.0673 236.525 37.9675 236.525 36.6812C236.525 35.4914 236.766 34.3176 237.249 33.1599C237.731 32.0022 238.455 30.9732 239.419 30.0728C240.384 29.1723 241.58 28.4488 243.008 27.9021C244.443 27.3554 246.108 27.0821 248.006 27.0821C249.163 27.0821 250.298 27.1785 251.411 27.3715C252.517 27.5644 253.521 27.7799 254.421 28.0179C255.322 28.2623 256.087 28.497 256.717 28.7221C257.341 28.9472 257.749 29.108 257.942 29.2045ZM265.178 62.2468V25.7314C265.467 26.1817 266.069 27.0403 266.982 28.3073C267.902 29.5807 268.963 31.0536 270.166 32.7258C271.375 34.398 272.655 36.1731 274.005 38.0511C275.356 39.9356 276.626 41.7043 277.816 43.3572C279.006 45.0166 280.041 46.4572 280.922 47.6792C281.81 48.9012 282.398 49.7052 282.688 50.0911C282.784 49.9303 283.09 49.4961 283.604 48.7887C284.119 48.0812 284.752 47.1969 285.505 46.1356C286.264 45.0744 287.126 43.8749 288.09 42.5372C289.055 41.2058 290.042 39.8391 291.052 38.437C292.068 37.0414 293.065 35.6522 294.043 34.2694C295.027 32.8866 295.937 31.6228 296.773 30.478C297.609 29.3396 298.323 28.3459 298.915 27.4969C299.513 26.6415 299.941 26.053 300.198 25.7314V62.2468H294.602V42.6626C294.602 42.4053 294.625 42.132 294.67 41.8426C294.721 41.5531 294.747 41.3441 294.747 41.2155C294.458 41.6014 293.998 42.251 293.368 43.1643C292.744 44.084 292.02 45.1291 291.197 46.2997C290.38 47.4766 289.521 48.7147 288.621 50.0139C287.721 51.3195 286.868 52.5512 286.065 53.7088C285.261 54.8665 284.553 55.8859 283.942 56.7671C283.331 57.6546 282.913 58.2753 282.688 58.629C282.463 58.3396 282.019 57.735 281.357 56.8153C280.701 55.902 279.929 54.8344 279.041 53.6124C278.16 52.3904 277.228 51.088 276.243 49.7052C275.266 48.3224 274.359 47.0361 273.523 45.8462C272.687 44.6564 271.963 43.6338 271.352 42.7784C270.741 41.9294 270.388 41.4084 270.291 41.2155C270.291 41.3441 270.314 41.5531 270.359 41.8426C270.41 42.132 270.436 42.4053 270.436 42.6626V62.2468H265.178ZM332.42 62.2468H308.784V27.275H331.745V32.0505H314.09V42.2767H329.815V47.1486H314.09V57.3748H332.42V62.2468ZM348.039 43.8685L345.869 46.7627C345.836 46.7306 345.724 46.6502 345.531 46.5215C345.338 46.3929 345.09 46.2643 344.788 46.1356C344.479 46.007 344.126 45.888 343.727 45.7787C343.322 45.6629 342.91 45.605 342.492 45.605C341.945 45.605 341.408 45.7337 340.881 45.9909C340.347 46.2482 340.08 46.7306 340.08 47.438C340.08 48.049 340.299 48.5475 340.736 48.9334C341.167 49.3193 341.704 49.6634 342.347 49.9657C342.99 50.2744 343.692 50.5895 344.45 50.9111C345.203 51.2327 345.901 51.625 346.544 52.0881C347.187 52.5576 347.727 53.1396 348.165 53.8343C348.596 54.5224 348.811 55.3971 348.811 56.4583C348.811 58.2592 348.194 59.7449 346.959 60.9154C345.717 62.0924 344.02 62.6809 341.865 62.6809C340.611 62.6809 339.382 62.4622 338.18 62.0249C336.971 61.594 335.996 60.9604 335.256 60.1243C335.482 59.8992 335.732 59.6098 336.009 59.2561C336.279 58.9023 336.552 58.5647 336.829 58.2431C337.099 57.9215 337.324 57.6546 337.504 57.4424C337.678 57.2366 337.781 57.1337 337.813 57.1337C337.813 57.1658 337.935 57.2623 338.18 57.4231C338.418 57.5839 338.73 57.7511 339.115 57.9247C339.501 58.1048 339.935 58.2656 340.418 58.4071C340.9 58.555 341.383 58.629 341.865 58.629C342.637 58.629 343.296 58.4361 343.843 58.0502C344.389 57.6643 344.663 57.1497 344.663 56.5066C344.663 55.9277 344.447 55.4679 344.016 55.127C343.579 54.7926 343.039 54.4806 342.396 54.1912C341.752 53.9018 341.045 53.6027 340.273 53.294C339.501 52.9917 338.794 52.5994 338.151 52.117C337.508 51.6347 336.971 51.0301 336.54 50.3033C336.102 49.583 335.884 48.644 335.884 47.4863C335.884 46.3929 336.086 45.4764 336.491 44.7368C336.89 43.9971 337.405 43.3926 338.035 42.9231C338.659 42.46 339.357 42.1223 340.128 41.9101C340.9 41.7043 341.64 41.6014 342.347 41.6014C343.28 41.6014 344.277 41.7943 345.338 42.1802C346.399 42.5661 347.3 43.1289 348.039 43.8685Z" fill="#FFCE53"/>
</g>
</g>
</g>
</g>
<g clip-path="url(#clip5_170_2870)">
<g clip-path="url(#clip6_170_2870)">
<path d="M0.229126 44.2063C0.229126 19.9767 19.8709 0.334961 44.1004 0.334961C68.33 0.334961 87.9718 19.9767 87.9718 44.2063C87.9718 68.4358 68.33 88.0776 44.1004 88.0776C19.8709 88.0776 0.229126 68.4358 0.229126 44.2063ZM44.1004 84.7452C66.4893 84.7452 84.6394 66.5952 84.6394 44.2063C84.6394 21.8174 66.4893 3.66736 44.1004 3.66736C21.7115 3.66736 3.56152 21.8174 3.56152 44.2063C3.56152 66.5952 21.7115 84.7452 44.1004 84.7452Z" fill="#FFCE53"/>
<path d="M44.1004 87.6385C68.0875 87.6385 87.5329 68.1931 87.5329 44.206C87.5329 20.2188 68.0875 0.773438 44.1004 0.773438C20.1133 0.773438 0.667847 20.2188 0.667847 44.206C0.667847 68.1931 20.1133 87.6385 44.1004 87.6385Z" fill="#FFCE53"/>
<g clip-path="url(#clip7_170_2870)">
<g clip-path="url(#clip8_170_2870)">
<path d="M66.6425 41.7909C67.0853 41.7909 67.4476 41.4286 67.4476 40.9858V21.664C67.4476 21.2212 67.0853 20.8589 66.6425 20.8589H47.3207C46.8779 20.8589 46.5156 21.2212 46.5156 21.664V31.3249H41.6852V21.664C41.6852 21.2212 41.3229 20.8589 40.8801 20.8589H21.5583C21.1155 20.8589 20.7532 21.2212 20.7532 21.664V40.9858C20.7532 41.4286 21.1155 41.7909 21.5583 41.7909H31.2192V46.6213H21.5583C21.1155 46.6213 20.7532 46.9836 20.7532 47.4264V66.7482C20.7532 67.191 21.1155 67.5533 21.5583 67.5533H40.8801C41.3229 67.5533 41.6852 67.191 41.6852 66.7482V57.0873H46.5156V66.7482C46.5156 67.191 46.8779 67.5533 47.3207 67.5533H66.6425C67.0853 67.5533 67.4476 67.191 67.4476 66.7482V47.4264C67.4476 46.9836 67.0853 46.6213 66.6425 46.6213H56.9816V41.7909H66.6425ZM56.1765 48.2315H65.8375V65.9432H48.1258V56.2822C48.1258 55.8395 47.7635 55.4772 47.3207 55.4772H40.8801C40.4373 55.4772 40.075 55.8395 40.075 56.2822V65.9432H22.3633V48.2315H32.0242C32.467 48.2315 32.8293 47.8692 32.8293 47.4264V40.9858C32.8293 40.543 32.467 40.1807 32.0242 40.1807H22.3633V22.469H40.075V32.13C40.075 32.5727 40.4373 32.935 40.8801 32.935H47.3207C47.7635 32.935 48.1258 32.5727 48.1258 32.13V22.469H65.8375V40.1807H56.1765C55.7337 40.1807 55.3715 40.543 55.3715 40.9858V47.4264C55.3715 47.8692 55.7337 48.2315 56.1765 48.2315Z" fill="#1B1725"/>
<path d="M63.4221 38.5705C63.8649 38.5705 64.2272 38.2082 64.2272 37.7654V24.8842C64.2272 24.4414 63.8649 24.0791 63.4221 24.0791H50.5409C50.0981 24.0791 49.7358 24.4414 49.7358 24.8842V34.5451H38.4648V24.8842C38.4648 24.4414 38.1025 24.0791 37.6597 24.0791H24.7785C24.3357 24.0791 23.9734 24.4414 23.9734 24.8842V37.7654C23.9734 38.2082 24.3357 38.5705 24.7785 38.5705H34.4394V49.8415H24.7785C24.3357 49.8415 23.9734 50.2038 23.9734 50.6466V63.5278C23.9734 63.9706 24.3357 64.3329 24.7785 64.3329H37.6597C38.1025 64.3329 38.4648 63.9706 38.4648 63.5278V53.8669H49.7358V63.5278C49.7358 63.9706 50.0981 64.3329 50.5409 64.3329H63.4221C63.8649 64.3329 64.2272 63.9706 64.2272 63.5278V50.6466C64.2272 50.2038 63.8649 49.8415 63.4221 49.8415H53.7612V38.5705H63.4221ZM25.5835 36.9603V25.6893H36.8546V35.3502C36.8546 35.793 37.2169 36.1552 37.6597 36.1552H43.2952V43.4009H36.0495V37.7654C36.0495 37.3226 35.6873 36.9603 35.2445 36.9603H25.5835ZM37.6597 52.2568C37.2169 52.2568 36.8546 52.6191 36.8546 53.0619V62.7228H25.5835V51.4517H35.2445C35.6873 51.4517 36.0495 51.0894 36.0495 50.6466V45.0111H43.2952V52.2568H37.6597ZM62.6171 51.4517V62.7228H51.346V53.0619C51.346 52.6191 50.9837 52.2568 50.5409 52.2568H44.9054V45.0111H52.1511V50.6466C52.1511 51.0894 52.5133 51.4517 52.9561 51.4517H62.6171ZM52.9561 36.9603C52.5133 36.9603 52.1511 37.3226 52.1511 37.7654V43.4009H44.9054V36.1552H50.5409C50.9837 36.1552 51.346 35.793 51.346 35.3502V25.6893H62.6171V36.9603H52.9561Z" fill="#1B1725"/>
</g>
</g>
</g>
</g>
</g>
<defs>
<clipPath id="clip0_170_2870">
<rect width="348.592" height="87.7425" fill="white" transform="translate(0.229126 0.334961)"/>
</clipPath>
<clipPath id="clip1_170_2870">
<rect width="243.403" height="36.9495" fill="white" transform="translate(105.417 25.7314)"/>
</clipPath>
<clipPath id="clip2_170_2870">
<rect width="243.403" height="36.9495" fill="white" transform="translate(105.417 25.7314)"/>
</clipPath>
<clipPath id="clip3_170_2870">
<rect width="243.403" height="36.9495" fill="white" transform="translate(105.417 25.7314)"/>
</clipPath>
<clipPath id="clip4_170_2870">
<rect width="243.403" height="36.9495" fill="white" transform="translate(105.417 25.7314)"/>
</clipPath>
<clipPath id="clip5_170_2870">
<rect width="87.7425" height="87.7425" fill="white" transform="translate(0.229126 0.334961)"/>
</clipPath>
<clipPath id="clip6_170_2870">
<rect width="87.7425" height="87.7425" fill="white" transform="translate(0.229126 0.334961)"/>
</clipPath>
<clipPath id="clip7_170_2870">
<rect width="46.6944" height="46.6944" fill="white" transform="translate(20.7532 20.8589)"/>
</clipPath>
<clipPath id="clip8_170_2870">
<rect width="46.6944" height="46.6944" fill="white" transform="translate(20.7532 20.8589)"/>
</clipPath>
</defs>
</svg>
