<svg width="23" height="6" viewBox="0 0 23 6" fill="none" xmlns="http://www.w3.org/2000/svg">
<path d="M21.3571 0.75H13.9643L13.2506 0.750442C12.5 0.749756 12.2926 0.750338 11.3854 0.750338C10.4783 0.750338 11 0.750137 9.03571 0.75H1.64286C0.735692 0.75 0 1.42172 0 2.25V3.75C0 4.57828 0.735692 5.25 1.64286 5.25H9.03571H9.90858C9.35257 5.25 10.7792 5.25 11.6864 5.25H12.7383C13.6455 5.25 13 5.25 13.9643 5.25H21.3571C22.2643 5.25 23 4.57828 23 3.75V2.25C23 1.42172 22.2643 0.75 21.3571 0.75Z" fill="#FFA800"/>
</svg>
