<svg width="41" height="42" viewBox="0 0 41 42" fill="none" xmlns="http://www.w3.org/2000/svg">
<path d="M25.5267 26.7172C25.5267 26.7172 42.1153 14.7463 40.2753 1.04579C40.257 0.813134 40.1648 0.59243 40.0121 0.415986C39.8425 0.258725 39.6246 0.163477 39.394 0.145736C26.0061 -1.73661 14.3101 15.2374 14.3101 15.2374C4.16281 14.0225 4.90071 16.0458 0.271213 27.166C-0.614737 29.2857 0.821112 30.0166 2.39561 29.4197L7.44341 27.5138L13.5299 33.7366L11.6664 38.9043C11.0836 40.5164 11.7956 41.9851 13.8707 41.0804C24.7371 36.3428 26.7158 37.0995 25.5267 26.7172ZM27.8978 12.8146C27.2217 12.116 26.8437 11.1818 26.8437 10.2096C26.8437 9.2374 27.2217 8.30327 27.8978 7.60464C28.2284 7.26395 28.624 6.9931 29.0611 6.80814C29.4983 6.62318 29.9682 6.52788 30.4429 6.52788C30.9176 6.52788 31.3874 6.62318 31.8246 6.80814C32.2618 6.9931 32.6574 7.26395 32.9879 7.60464C33.664 8.30327 34.042 9.2374 34.042 10.2096C34.042 11.1818 33.664 12.116 32.9879 12.8146C32.6574 13.1553 32.2618 13.4261 31.8246 13.6111C31.3874 13.796 30.9176 13.8913 30.4429 13.8913C29.9682 13.8913 29.4983 13.796 29.0611 13.6111C28.624 13.4261 28.2284 13.1553 27.8978 12.8146Z" fill="#FFA800"/>
</svg>
