<svg xmlns="http://www.w3.org/2000/svg" width="80" height="81" viewBox="0 0 80 81" fill="none">
  <path fill-rule="evenodd" clip-rule="evenodd" d="M3.33325 10.1385C3.33325 9.25445 3.68444 8.40661 4.30956 7.78149C4.93468 7.15637 5.78253 6.80518 6.66659 6.80518H43.3333C44.2173 6.80518 45.0652 7.15637 45.6903 7.78149C46.3154 8.40661 46.6666 9.25445 46.6666 10.1385V26.8052H59.9999C62.1886 26.8052 64.3559 27.2363 66.378 28.0739C68.4001 28.9114 70.2374 30.1391 71.785 31.6867C73.3327 33.2344 74.5603 35.0717 75.3979 37.0938C76.2355 39.1159 76.6666 41.2831 76.6666 43.4718V56.8052C76.6669 58.951 75.9772 61.0401 74.6994 62.7639C73.4215 64.4878 71.6232 65.755 69.5699 66.3785C68.9586 68.3952 67.7258 70.1672 66.0475 71.4416C64.3692 72.716 62.3312 73.4276 60.2245 73.4749C58.1177 73.5222 56.0499 72.9028 54.3161 71.705C52.5823 70.5072 51.2712 68.7924 50.5699 66.8052H29.4333C28.732 68.7924 27.4209 70.5072 25.6871 71.705C23.9533 72.9028 21.8854 73.5222 19.7787 73.4749C17.6719 73.4276 15.6339 72.716 13.9557 71.4416C12.2774 70.1672 11.0446 68.3952 10.4333 66.3785C8.37938 65.7556 6.58032 64.4886 5.30181 62.7647C4.02329 61.0408 3.33312 58.9514 3.33325 56.8052V43.4718H23.3333C24.2173 43.4718 25.0652 43.1207 25.6903 42.4955C26.3154 41.8704 26.6666 41.0226 26.6666 40.1385C26.6666 39.2545 26.3154 38.4066 25.6903 37.7815C25.0652 37.1564 24.2173 36.8052 23.3333 36.8052H3.33325V30.1385H16.6666C17.5506 30.1385 18.3985 29.7873 19.0236 29.1622C19.6487 28.5371 19.9999 27.6892 19.9999 26.8052C19.9999 25.9211 19.6487 25.0733 19.0236 24.4482C18.3985 23.823 17.5506 23.4718 16.6666 23.4718H3.33325V10.1385ZM46.6666 60.1385H50.5699C51.2289 58.2733 52.4263 56.6455 54.0105 55.4609C55.5948 54.2764 57.4948 53.5883 59.4702 53.4837C61.4456 53.3792 63.4076 53.8629 65.1081 54.8736C66.8086 55.8843 68.1711 57.3767 69.0233 59.1618C69.3333 58.8527 69.5791 58.4854 69.7467 58.081C69.9143 57.6765 70.0004 57.243 69.9999 56.8052V43.4718C69.9999 40.8197 68.9464 38.2761 67.071 36.4008C65.1956 34.5254 62.6521 33.4718 59.9999 33.4718H46.6666V60.1385ZM23.3333 63.4718C23.3333 62.5878 22.9821 61.7399 22.3569 61.1148C21.7318 60.4897 20.884 60.1385 19.9999 60.1385C19.1159 60.1385 18.268 60.4897 17.6429 61.1148C17.0178 61.7399 16.6666 62.5878 16.6666 63.4718C16.6666 64.3559 17.0178 65.2038 17.6429 65.8289C18.268 66.454 19.1159 66.8052 19.9999 66.8052C20.884 66.8052 21.7318 66.454 22.3569 65.8289C22.9821 65.2038 23.3333 64.3559 23.3333 63.4718ZM57.6433 61.1152C57.3328 61.424 57.0867 61.7912 56.919 62.1957C56.7514 62.6003 56.6656 63.034 56.6666 63.4718C56.6664 64.243 56.9337 64.9904 57.4228 65.5867C57.9119 66.1829 58.5926 66.5911 59.349 66.7417C60.1053 66.8923 60.8905 66.776 61.5707 66.4126C62.2509 66.0492 62.784 65.4612 63.0793 64.7487C63.3745 64.0363 63.4136 63.2435 63.1899 62.5055C62.9662 61.7675 62.4934 61.1299 61.8523 60.7013C61.2111 60.2727 60.4412 60.0798 59.6737 60.1552C58.9062 60.2307 58.1887 60.5699 57.6433 61.1152Z" fill="#FFCE53"/>
</svg>