<svg width="34" height="14" viewBox="0 0 34 14" fill="none" xmlns="http://www.w3.org/2000/svg">
<path d="M5.70207 13.6667L0.56665 8.673C2.7861 6.07578 5.31248 4.134 8.14582 2.84766C10.9792 1.56039 13.9305 0.916748 17 0.916748C20.0694 0.916748 23.0152 1.56039 25.8372 2.84766C28.6582 4.134 31.1903 6.07578 33.4333 8.673L28.2979 13.6667L22.6667 9.41675V4.67091C21.7694 4.38758 20.8486 4.16328 19.9042 3.998C18.9597 3.83272 17.9917 3.75008 17 3.75008C16.0083 3.75008 15.0403 3.83272 14.0958 3.998C13.1514 4.16328 12.2305 4.38758 11.3333 4.67091V9.41675L5.70207 13.6667Z" fill="#FFA800"/>
</svg>
