<svg xmlns="http://www.w3.org/2000/svg" width="24" height="24" viewBox="0 0 24 24" fill="none">
<path d="M8.26846 2.53641C7.05109 1.51617 5.23728 1.66282 4.3136 2.95501C4.0669 3.30015 3.77455 3.71181 3.26959 4.34346C1.53252 6.51635 1.53253 9.66263 3.27919 11.8278C4.5686 13.4262 5.92054 15.039 7.43184 16.5503C8.94313 18.0616 10.556 19.4135 12.1544 20.703C14.3195 22.4497 17.4658 22.4497 19.6387 20.7126C20.3126 20.1738 20.7331 19.8803 21.09 19.6254C22.3382 18.7339 22.513 16.9855 21.5385 15.8012C20.7682 14.8653 19.9106 13.9724 19.0833 13.1009C18.4243 12.4066 17.3236 12.3613 16.5756 12.9587C16.3744 13.1193 16.1246 13.3311 15.6181 13.8059C13.1326 12.329 11.6263 10.8042 10.1763 8.36404C10.6569 7.85142 10.8688 7.60089 11.0309 7.39777C11.6272 6.65036 11.5829 5.55256 10.8846 4.89949C10.0334 4.10353 9.16716 3.28957 8.26846 2.53641Z" fill="#FFF3F1"/>
<path d="M8.26846 2.53641C7.05109 1.51617 5.23728 1.66282 4.3136 2.95501C4.0669 3.30015 3.77455 3.71181 3.26959 4.34346C1.53252 6.51635 1.53253 9.66263 3.27919 11.8278C4.5686 13.4262 5.92054 15.039 7.43184 16.5503C8.94313 18.0616 10.556 19.4135 12.1544 20.703C14.3195 22.4497 17.4658 22.4497 19.6387 20.7126C20.3126 20.1738 20.7331 19.8803 21.09 19.6254C22.3382 18.7339 22.513 16.9855 21.5385 15.8012C20.7682 14.8653 19.9106 13.9724 19.0833 13.1009C18.4243 12.4066 17.3236 12.3613 16.5756 12.9587C16.3744 13.1193 16.1246 13.3311 15.6181 13.8059C13.1326 12.329 11.6263 10.8042 10.1763 8.36404C10.6569 7.85142 10.8688 7.60089 11.0309 7.39777C11.6272 6.65036 11.5829 5.55256 10.8846 4.89949C10.0334 4.10353 9.16716 3.28957 8.26846 2.53641Z" stroke="#ED0027" stroke-width="1.71429" stroke-linejoin="round"/>
</svg>