<svg xmlns="http://www.w3.org/2000/svg" width="48" height="48" viewBox="0 0 48 48" fill="none">
<path d="M4.5 5.57754V42.4213C4.50025 42.5012 4.52409 42.5793 4.56853 42.6457C4.61298 42.7122 4.67605 42.764 4.74984 42.7948C4.82363 42.8255 4.90485 42.8338 4.98332 42.8185C5.06179 42.8033 5.13402 42.7652 5.19094 42.7091L24.375 24.0003L5.19094 5.28972C5.13402 5.2336 5.06179 5.19554 4.98332 5.1803C4.90485 5.16506 4.82363 5.17333 4.74984 5.20406C4.67605 5.2348 4.61298 5.28664 4.56853 5.35308C4.52409 5.41952 4.50025 5.4976 4.5 5.57754Z" fill="#800216"/>
<path d="M32.4187 16.3125L8.36432 3.06004L8.34932 3.0516C7.93494 2.8266 7.54119 3.38722 7.88057 3.71347L26.7365 21.7435L32.4187 16.3125Z" fill="#800216"/>
<path d="M7.88252 44.2875C7.54127 44.6137 7.93502 45.1744 8.35127 44.9494L8.36627 44.9409L32.4188 31.6884L26.7366 26.2556L7.88252 44.2875Z" fill="#800216"/>
<path d="M42.1294 21.6545L35.4123 17.9551L29.0963 23.9982L35.4123 30.0385L42.1294 26.342C43.9566 25.3323 43.9566 22.6641 42.1294 21.6545Z" fill="#800216"/>
</svg>