<svg width="56" height="57" viewBox="0 0 56 57" fill="none" xmlns="http://www.w3.org/2000/svg">
<circle cx="28" cy="28.1387" r="28" fill="#1B1725"/>
<path d="M39.975 29.2887C39.4125 29.2887 38.9341 29.0916 38.5399 28.6974C38.1457 28.3032 37.9491 27.8253 37.95 27.2637V19.1637C37.95 18.6012 38.1471 18.1228 38.5413 17.7286C38.9355 17.3344 39.4134 17.1378 39.975 17.1387C40.5375 17.1387 41.0158 17.3358 41.41 17.73C41.8042 18.1242 42.0009 18.6021 42 19.1637V27.2637C42 27.8262 41.8029 28.3045 41.4087 28.6987C41.0145 29.0929 40.5366 29.2896 39.975 29.2887ZM25.8 29.2887C24.315 29.2887 23.0437 28.7599 21.9862 27.7024C20.9287 26.6449 20.4 25.3737 20.4 23.8887C20.4 22.4037 20.9287 21.1324 21.9862 20.0749C23.0437 19.0174 24.315 18.4887 25.8 18.4887C27.285 18.4887 28.5562 19.0174 29.6137 20.0749C30.6712 21.1324 31.2 22.4037 31.2 23.8887C31.2 25.3737 30.6712 26.6449 29.6137 27.7024C28.5562 28.7599 27.285 29.2887 25.8 29.2887ZM15 40.0887V36.3087C15 35.5437 15.1912 34.8403 15.5737 34.1986C15.9562 33.5569 16.485 33.0678 17.16 32.7312C18.51 32.0562 19.9104 31.5387 21.3612 31.1787C22.812 30.8187 24.2916 30.6387 25.8 30.6387C27.3075 30.6387 28.7871 30.8187 30.2388 31.1787C31.6905 31.5387 33.0909 32.0562 34.44 32.7312C35.115 33.0687 35.6437 33.5583 36.0262 34.2C36.4087 34.8417 36.6 35.5446 36.6 36.3087V40.0887H15Z" fill="#FFCE53"/>
</svg>
