<svg width="56" height="57" viewBox="0 0 56 57" fill="none" xmlns="http://www.w3.org/2000/svg">
<circle cx="28" cy="28.1387" r="28" fill="#1B1725"/>
<path d="M20.75 31.6997C21.1643 32.0309 21.6932 32.184 22.2203 32.1253C22.7475 32.0666 23.2297 31.8009 23.561 31.3867L26.35 27.9007L28.8 29.7387C29.2159 30.0504 29.7368 30.1879 30.2523 30.1222C30.7679 30.0565 31.2376 29.7927 31.562 29.3867L35.562 24.3867C35.8934 23.9724 36.0466 23.4435 35.988 22.9162C35.9294 22.389 35.6638 21.9066 35.2495 21.5752C34.8352 21.2438 34.3063 21.0905 33.779 21.1492C33.2518 21.2078 32.7694 21.4734 32.438 21.8877L29.649 25.3737L27.2 23.5387C26.7844 23.2268 26.2636 23.0889 25.7481 23.1542C25.2326 23.2195 24.7627 23.4829 24.438 23.8887L20.438 28.8887C20.1069 29.3029 19.9538 29.8317 20.0123 30.3587C20.0708 30.8858 20.3361 31.3681 20.75 31.6997ZM21 37.1387H35C35.2652 37.1387 35.5196 37.0333 35.7071 36.8458C35.8946 36.6583 36 36.4039 36 36.1387C36 35.8735 35.8946 35.6191 35.7071 35.4316C35.5196 35.244 35.2652 35.1387 35 35.1387H21C20.7348 35.1387 20.4804 35.244 20.2929 35.4316C20.1054 35.6191 20 35.8735 20 36.1387C20 36.4039 20.1054 36.6583 20.2929 36.8458C20.4804 37.0333 20.7348 37.1387 21 37.1387Z" fill="#FFCE53"/>
</svg>
