<svg width="56" height="57" viewBox="0 0 56 57" fill="none" xmlns="http://www.w3.org/2000/svg">
<circle cx="28" cy="28.1387" r="28" fill="#1B1725"/>
<g clip-path="url(#clip0_170_2714)">
<path d="M39.715 30.6387L35.965 23.1387H37C37.1989 23.1387 37.3897 23.0597 37.5303 22.919C37.671 22.7783 37.75 22.5876 37.75 22.3887C37.75 22.1898 37.671 21.999 37.5303 21.8583C37.3897 21.7177 37.1989 21.6387 37 21.6387H35.815C35.0093 20.761 34.0383 20.0509 32.9578 19.549C31.8773 19.0471 30.7084 18.7632 29.518 18.7137L29.5 18.6387C29.5 18.2408 29.342 17.8593 29.0607 17.578C28.7794 17.2967 28.3978 17.1387 28 17.1387C27.6022 17.1387 27.2206 17.2967 26.9393 17.578C26.658 17.8593 26.5 18.2408 26.5 18.6387V18.7137C24.0757 18.8142 21.7879 19.863 20.1295 21.6342L19 21.6387C18.8011 21.6387 18.6103 21.7177 18.4697 21.8583C18.329 21.999 18.25 22.1898 18.25 22.3887C18.25 22.5876 18.329 22.7783 18.4697 22.919C18.6103 23.0597 18.8011 23.1387 19 23.1387H20.035L16.285 30.6387H16C16 32.2887 18.01 33.6387 20.5 33.6387C22.99 33.6387 25 32.2887 25 30.6387H24.715L20.89 23.0037C20.9841 22.9471 21.0653 22.8715 21.1285 22.7817C21.792 22.0023 22.6127 21.372 23.5369 20.932C24.461 20.492 25.4677 20.2523 26.491 20.2287L26.5 36.6387H25V38.1387H22V39.6387H34V38.1387H31V36.6387H29.5V20.2287C30.5115 20.2488 31.507 20.4859 32.4189 20.9241C33.3309 21.3622 34.1381 21.9911 34.786 22.7682C34.8564 22.8849 34.9562 22.9811 35.0755 23.0472L31.285 30.6387H31C31 32.2887 33.01 33.6387 35.5 33.6387C37.99 33.6387 40 32.2887 40 30.6387H39.715ZM23.5 30.6387H17.5L20.5 24.7287L23.5 30.6387ZM32.5 30.6387L35.5 24.7287L38.5 30.6387H32.5Z" fill="#FFCE53"/>
</g>
<defs>
<clipPath id="clip0_170_2714">
<rect width="24" height="24" fill="white" transform="translate(16 16.6387)"/>
</clipPath>
</defs>
</svg>
