<svg width="56" height="57" viewBox="0 0 56 57" fill="none" xmlns="http://www.w3.org/2000/svg">
<circle cx="28" cy="28.1387" r="28" fill="#1B1725"/>
<path d="M39.2812 21.8679L34.75 26.347C34.75 26.347 33.3958 26.347 32.0417 24.9929C30.6875 23.6387 30.6875 22.2845 30.6875 22.2845L35.2188 17.7533C32.6667 17.1283 29.5937 17.9616 27.7187 19.8366C24.9062 22.6491 27.4062 26.2429 26.6771 26.972C22.7187 31.0866 18.6562 34.2116 18.5521 34.3679C17.3542 35.5658 17.3021 37.4929 18.4479 38.6387C19.5937 39.7845 21.5208 39.7325 22.7187 38.5345C22.875 38.3783 26.2083 34.1595 30.1146 30.2533C30.8437 29.5241 34.2812 32.1804 37.1979 29.3158C39.0208 27.4408 39.9062 24.42 39.2812 21.8679ZM20.8958 37.545C20.1667 37.545 19.5937 36.972 19.5937 36.2429C19.5937 35.4616 20.1667 34.8887 20.8958 34.8887C21.625 34.8887 22.1979 35.4616 22.1979 36.1908C22.1979 36.92 21.625 37.545 20.8958 37.545Z" fill="#FFCE53"/>
</svg>
