<svg width="56" height="57" viewBox="0 0 56 57" fill="none" xmlns="http://www.w3.org/2000/svg">
<circle cx="28" cy="28.1387" r="28" fill="#1B1725"/>
<g clip-path="url(#clip0_170_2722)">
<path d="M34.1261 19.6387C34.9072 19.6389 35.6796 19.8017 36.3943 20.1168C37.1089 20.4319 37.7501 20.8924 38.277 21.469C38.8039 22.0455 39.205 22.7255 39.4547 23.4655C39.7043 24.2056 39.7971 24.9895 39.7272 25.7674C39.6573 26.5453 39.4261 27.3002 39.0484 27.9838C38.6707 28.6675 38.1547 29.265 37.5334 29.7382C36.9121 30.2115 36.1991 30.5503 35.4397 30.7328C34.6803 30.9154 33.8912 30.9378 33.1226 30.7987L30.1402 33.0363C30.2346 33.6728 30.1913 34.3222 30.0134 34.9405C29.8355 35.5589 29.527 36.132 29.1088 36.621C28.6905 37.11 28.1723 37.5036 27.589 37.7753C27.0057 38.0471 26.3709 38.1905 25.7275 38.196C25.0841 38.2016 24.4469 38.069 23.859 37.8074C23.2712 37.5457 22.7462 37.161 22.3197 36.6792C21.8931 36.1975 21.5749 35.6298 21.3863 35.0146C21.1978 34.3993 21.1434 33.7508 21.2269 33.1128L16.9226 31.3724L17.7664 29.2867L22.0706 31.0248C22.5432 30.3848 23.1773 29.8817 23.9081 29.567C24.6388 29.2524 25.44 29.1374 26.2297 29.2338L28.5247 25.7902C28.4514 25.0103 28.5418 24.2238 28.79 23.4809C29.0383 22.738 29.4389 22.0552 29.9663 21.4761C30.4937 20.897 31.1363 20.4345 31.8528 20.1181C32.5693 19.8016 33.344 19.6384 34.1272 19.6387H34.1261ZM25.6886 31.4512C25.1666 31.4512 24.6851 31.6289 24.3037 31.9282L26.1105 32.6583C26.3851 32.7716 26.6038 32.9888 26.7188 33.2627C26.8338 33.5366 26.8358 33.8448 26.7244 34.1202C26.613 34.3956 26.3973 34.6157 26.1242 34.7326C25.8511 34.8494 25.5429 34.8536 25.2667 34.744L23.46 34.0162C23.5204 34.4434 23.7024 34.8443 23.9843 35.1711C24.2662 35.4978 24.6361 35.7365 25.05 35.8589C25.4638 35.9812 25.904 35.982 26.3183 35.861C26.7325 35.7401 27.1033 35.5026 27.3863 35.1769C27.6693 34.8511 27.8527 34.4509 27.9146 34.0238C27.9764 33.5968 27.9142 33.1609 27.7353 32.7682C27.5564 32.3755 27.2683 32.0426 26.9054 31.8091C26.5425 31.5756 26.1201 31.4513 25.6886 31.4512ZM29.4731 28.4249L28.3672 30.0854C28.6867 30.3217 28.9747 30.6007 29.22 30.9123L30.75 29.7648C30.2537 29.3913 29.8223 28.9386 29.4731 28.4249ZM34.125 21.8887C33.2299 21.8887 32.3714 22.2443 31.7385 22.8772C31.1056 23.5101 30.75 24.3686 30.75 25.2637C30.75 26.1588 31.1056 27.0172 31.7385 27.6502C32.3714 28.2831 33.2299 28.6387 34.125 28.6387C35.0201 28.6387 35.8785 28.2831 36.5115 27.6502C37.1444 27.0172 37.5 26.1588 37.5 25.2637C37.5 24.3686 37.1444 23.5101 36.5115 22.8772C35.8785 22.2443 35.0201 21.8887 34.125 21.8887ZM34.125 23.0137C34.7217 23.0137 35.294 23.2507 35.716 23.6727C36.1379 24.0946 36.375 24.6669 36.375 25.2637C36.375 25.8604 36.1379 26.4327 35.716 26.8547C35.294 27.2766 34.7217 27.5137 34.125 27.5137C33.5282 27.5137 32.9559 27.2766 32.534 26.8547C32.112 26.4327 31.875 25.8604 31.875 25.2637C31.875 24.6669 32.112 24.0946 32.534 23.6727C32.9559 23.2507 33.5282 23.0137 34.125 23.0137Z" fill="#FFCE53"/>
</g>
<defs>
<clipPath id="clip0_170_2722">
<rect width="24" height="24" fill="white" transform="translate(16 16.1387)"/>
</clipPath>
</defs>
</svg>
