<svg width="28" height="29" viewBox="0 0 28 29" fill="none" xmlns="http://www.w3.org/2000/svg">
<circle cx="14" cy="14.5" r="13.5484" fill="#FFA800"/>
<path d="M21.0729 10.4226C21.0842 10.6005 21.0842 10.7783 21.0842 10.9561C21.0842 16.3797 17.4122 22.6289 10.7009 22.6289C8.63324 22.6289 6.7125 21.9557 5.0968 20.7872C5.39057 20.8253 5.67301 20.838 5.97809 20.838C7.68414 20.838 9.25466 20.1902 10.5088 19.0852C8.90441 19.0471 7.55988 17.8658 7.09663 16.24C7.32262 16.2781 7.54857 16.3035 7.78586 16.3035C8.11351 16.3035 8.44119 16.2527 8.74623 16.1638C7.07406 15.7827 5.81988 14.1315 5.81988 12.1374V12.0866C6.3057 12.3914 6.87067 12.5819 7.46945 12.6073C6.48648 11.8706 5.84248 10.6132 5.84248 9.19058C5.84248 8.4285 6.02323 7.72991 6.33961 7.12023C8.13608 9.60974 10.8364 11.2355 13.8644 11.4134C13.8079 11.1085 13.774 10.791 13.774 10.4735C13.774 8.21256 15.401 6.37085 17.4235 6.37085C18.4742 6.37085 19.4233 6.86621 20.0899 7.66641C20.9147 7.4886 21.7056 7.14564 22.4061 6.67569C22.1349 7.62833 21.5587 8.42854 20.8017 8.93656C21.5362 8.8477 22.248 8.61902 22.9033 8.30151C22.4062 9.11438 21.7847 9.83834 21.0729 10.4226Z" fill="white"/>
</svg>
