<svg width="52" height="31" viewBox="0 0 52 31" fill="none" xmlns="http://www.w3.org/2000/svg">
<path d="M33.7932 15.4967C33.7932 19.6072 30.2978 22.9394 25.9859 22.9394C21.674 22.9394 18.1786 19.6072 18.1786 15.4967C18.1786 11.3862 21.674 8.05408 25.9859 8.05408C30.2978 8.05404 33.7932 11.3863 33.7932 15.4967ZM26 0C21.5356 0.0197049 16.9081 1.10115 12.5275 3.17162C9.27498 4.77225 6.10523 7.0305 3.35374 9.81786C2.00235 11.2407 0.278677 13.301 0 15.4992C0.0329333 17.4033 2.08563 19.7536 3.35374 21.1805C5.93394 23.8584 9.02113 26.0536 12.5275 27.8284C16.6126 29.8011 21.1342 30.9368 26 31C30.4687 30.98 35.0951 29.8861 39.4709 27.8284C42.7234 26.2278 45.8947 23.9679 48.6463 21.1805C49.9976 19.7577 51.7213 17.6974 52 15.4992C51.9671 13.595 49.9144 11.2447 48.6463 9.81777C46.0661 7.13989 42.9772 4.94636 39.4709 3.17154C35.3879 1.20036 30.8552 0.072395 26 0ZM25.9967 3.84819C32.7619 3.84819 38.246 9.0652 38.246 15.5008C38.246 21.9364 32.7619 27.1535 25.9967 27.1535C19.2315 27.1535 13.7475 21.9364 13.7475 15.5008C13.7475 9.0652 19.2315 3.84819 25.9967 3.84819Z" fill="#FFA800"/>
</svg>
